<svg xmlns="http://www.w3.org/2000/svg" xmlns:xlink="http://www.w3.org/1999/xlink" contentStyleType="text/css" data-diagram-type="CLASS" height="745px" preserveAspectRatio="none" style="width:3060px;height:745px;background:#FFFFFF;" version="1.1" viewBox="0 0 3060 745" width="3060px" zoomAndPan="magnify"><?plantuml 1.2026.4beta2?><defs/><g><!--class Runner--><g class="entity" data-qualified-name="Runner" data-source-line="29" id="ent0002"><rect fill="#D3D3D3" height="48" rx="3.5" ry="3.5" style="stroke:#181818;stroke-width:0.5;" width="82.7158" x="1054.81" y="11.14"/><ellipse cx="1069.81" cy="27.14" fill="#A9DCDF" rx="11" ry="11" style="stroke:#181818;stroke-width:1;"/><path d="M1069.9194,22.4838 L1068.7631,27.5619 L1071.0913,27.5619 L1069.9194,22.4838 Z M1068.435,20.2494 L1071.4194,20.2494 L1074.7788,32.64 L1072.3256,32.64 L1071.56,29.5775 L1068.2788,29.5775 L1067.5288,32.64 L1065.0913,32.64 L1068.435,20.2494 Z " fill="#000000"/><text fill="#000000" font-family="sans-serif" font-size="14" font-style="italic" lengthAdjust="spacing" textLength="50.7158" x="1083.81" y="31.9867">Runner</text><line style="stroke:#181818;stroke-width:0.5;" x1="1055.81" x2="1136.5258" y1="43.14" y2="43.14"/><line style="stroke:#181818;stroke-width:0.5;" x1="1055.81" x2="1136.5258" y1="51.14" y2="51.14"/></g><!--class MenuRendererCommon--><g class="entity" data-qualified-name="MenuRendererCommon" data-source-line="30" id="ent0003"><rect fill="#D3D3D3" height="64.2969" rx="3.5" ry="3.5" style="stroke:#181818;stroke-width:0.5;" width="231.9189" x="980.21" y="128.4"/><ellipse cx="1010.3241" cy="144.4" fill="#A9DCDF" rx="11" ry="11" style="stroke:#181818;stroke-width:1;"/><path d="M1010.4335,139.7438 L1009.2772,144.8219 L1011.6054,144.8219 L1010.4335,139.7438 Z M1008.9491,137.5094 L1011.9335,137.5094 L1015.2929,149.9 L1012.8397,149.9 L1012.0741,146.8375 L1008.7929,146.8375 L1008.0429,149.9 L1005.6054,149.9 L1008.9491,137.5094 Z " fill="#000000"/><text fill="#000000" font-family="sans-serif" font-size="14" font-style="italic" lengthAdjust="spacing" textLength="166.332" x="1027.6828" y="149.2467">MenuRendererCommon</text><line style="stroke:#181818;stroke-width:0.5;" x1="981.21" x2="1211.1289" y1="160.4" y2="160.4"/><text fill="#000000" font-family="sans-serif" font-size="14" lengthAdjust="spacing" textLength="219.9189" x="986.21" y="177.3951">Used to draw main menu items</text><line style="stroke:#181818;stroke-width:0.5;" x1="981.21" x2="1211.1289" y1="184.6969" y2="184.6969"/></g><!--class AppMenuRenderer--><g class="entity" data-qualified-name="AppMenuRenderer" data-source-line="33" id="ent0004"><rect fill="#D3D3D3" height="48" rx="3.5" ry="3.5" style="stroke:#181818;stroke-width:0.5;" width="162.6279" x="1441.85" y="286.11"/><ellipse cx="1456.85" cy="302.11" fill="#A9DCDF" rx="11" ry="11" style="stroke:#181818;stroke-width:1;"/><path d="M1456.9594,297.4538 L1455.8031,302.5319 L1458.1313,302.5319 L1456.9594,297.4538 Z M1455.475,295.2194 L1458.4594,295.2194 L1461.8188,307.61 L1459.3656,307.61 L1458.6,304.5475 L1455.3188,304.5475 L1454.5688,307.61 L1452.1313,307.61 L1455.475,295.2194 Z " fill="#000000"/><text fill="#000000" font-family="sans-serif" font-size="14" font-style="italic" lengthAdjust="spacing" textLength="130.6279" x="1470.85" y="306.9567">AppMenuRenderer</text><line style="stroke:#181818;stroke-width:0.5;" x1="1442.85" x2="1603.4779" y1="318.11" y2="318.11"/><line style="stroke:#181818;stroke-width:0.5;" x1="1442.85" x2="1603.4779" y1="326.11" y2="326.11"/></g><!--class LiveViewManager--><g class="entity" data-qualified-name="LiveViewManager" data-source-line="34" id="ent0005"><rect fill="#D3D3D3" height="48" rx="3.5" ry="3.5" style="stroke:#181818;stroke-width:0.5;" width="155.4844" x="2747.43" y="560.79"/><ellipse cx="2762.43" cy="576.79" fill="#B4A7E5" rx="11" ry="11" style="stroke:#181818;stroke-width:1;"/><path d="M2758.3519,572.5556 L2758.3519,570.3994 L2765.7425,570.3994 L2765.7425,572.5556 L2763.2738,572.5556 L2763.2738,580.6338 L2765.7425,580.6338 L2765.7425,582.79 L2758.3519,582.79 L2758.3519,580.6338 L2760.8206,580.6338 L2760.8206,572.5556 L2758.3519,572.5556 Z " fill="#000000"/><text fill="#000000" font-family="sans-serif" font-size="14" font-style="italic" lengthAdjust="spacing" textLength="123.4844" x="2776.43" y="581.6367">LiveViewManager</text><line style="stroke:#181818;stroke-width:0.5;" x1="2748.43" x2="2901.9144" y1="592.79" y2="592.79"/><line style="stroke:#181818;stroke-width:0.5;" x1="2748.43" x2="2901.9144" y1="600.79" y2="600.79"/></g><!--class LiveViewUpdater--><g class="entity" data-qualified-name="LiveViewUpdater" data-source-line="35" id="ent0006"><rect fill="#D3D3D3" height="48" rx="3.5" ry="3.5" style="stroke:#181818;stroke-width:0.5;" width="150.5762" x="2831.88" y="427.53"/><ellipse cx="2846.88" cy="443.53" fill="#ADD1B2" rx="11" ry="11" style="stroke:#181818;stroke-width:1;"/><path d="M2849.8488,449.1706 Q2849.2706,449.4675 2848.63,449.6081 Q2847.9894,449.7644 2847.2863,449.7644 Q2844.7863,449.7644 2843.4581,448.1238 Q2842.1456,446.4675 2842.1456,443.3425 Q2842.1456,440.2175 2843.4581,438.5613 Q2844.7863,436.905 2847.2863,436.905 Q2847.9894,436.905 2848.63,437.0613 Q2849.2863,437.2175 2849.8488,437.5144 L2849.8488,440.2331 Q2849.2238,439.655 2848.63,439.3894 Q2848.0363,439.1081 2847.4113,439.1081 Q2846.0675,439.1081 2845.38,440.1863 Q2844.6925,441.2488 2844.6925,443.3425 Q2844.6925,445.4363 2845.38,446.5144 Q2846.0675,447.5769 2847.4113,447.5769 Q2848.0363,447.5769 2848.63,447.3113 Q2849.2238,447.03 2849.8488,446.4519 L2849.8488,449.1706 Z " fill="#000000"/><text fill="#000000" font-family="sans-serif" font-size="14" lengthAdjust="spacing" textLength="118.5762" x="2860.88" y="448.3767">LiveViewUpdater</text><line style="stroke:#181818;stroke-width:0.5;" x1="2832.88" x2="2981.4562" y1="459.53" y2="459.53"/><line style="stroke:#181818;stroke-width:0.5;" x1="2832.88" x2="2981.4562" y1="467.53" y2="467.53"/></g><!--class Renderer--><g class="entity" data-qualified-name="Renderer" data-source-line="36" id="ent0007"><rect fill="#D3D3D3" height="48" rx="3.5" ry="3.5" style="stroke:#181818;stroke-width:0.5;" width="96.8389" x="1957.75" y="427.53"/><ellipse cx="1972.75" cy="443.53" fill="#A9DCDF" rx="11" ry="11" style="stroke:#181818;stroke-width:1;"/><path d="M1972.8594,438.8738 L1971.7031,443.9519 L1974.0313,443.9519 L1972.8594,438.8738 Z M1971.375,436.6394 L1974.3594,436.6394 L1977.7188,449.03 L1975.2656,449.03 L1974.5,445.9675 L1971.2188,445.9675 L1970.4688,449.03 L1968.0313,449.03 L1971.375,436.6394 Z " fill="#000000"/><text fill="#000000" font-family="sans-serif" font-size="14" font-style="italic" lengthAdjust="spacing" textLength="64.8389" x="1986.75" y="448.3767">Renderer</text><line style="stroke:#181818;stroke-width:0.5;" x1="1958.75" x2="2053.5889" y1="459.53" y2="459.53"/><line style="stroke:#181818;stroke-width:0.5;" x1="1958.75" x2="2053.5889" y1="467.53" y2="467.53"/></g><!--class LiveViewRendererCommon--><g class="entity" data-qualified-name="LiveViewRendererCommon" data-source-line="37" id="ent0008"><rect fill="#D3D3D3" height="48" rx="3.5" ry="3.5" style="stroke:#181818;stroke-width:0.5;" width="222.0117" x="2068.16" y="286.11"/><ellipse cx="2083.16" cy="302.11" fill="#A9DCDF" rx="11" ry="11" style="stroke:#181818;stroke-width:1;"/><path d="M2083.2694,297.4538 L2082.1131,302.5319 L2084.4413,302.5319 L2083.2694,297.4538 Z M2081.785,295.2194 L2084.7694,295.2194 L2088.1288,307.61 L2085.6756,307.61 L2084.91,304.5475 L2081.6288,304.5475 L2080.8788,307.61 L2078.4413,307.61 L2081.785,295.2194 Z " fill="#000000"/><text fill="#000000" font-family="sans-serif" font-size="14" font-style="italic" lengthAdjust="spacing" textLength="190.0117" x="2097.16" y="306.9567">LiveViewRendererCommon</text><line style="stroke:#181818;stroke-width:0.5;" x1="2069.16" x2="2289.1717" y1="318.11" y2="318.11"/><line style="stroke:#181818;stroke-width:0.5;" x1="2069.16" x2="2289.1717" y1="326.11" y2="326.11"/></g><!--class PopupSubMenuItem--><g class="entity" data-qualified-name="PopupSubMenuItem" data-source-line="38" id="ent0009"><rect fill="#D3D3D3" height="48" rx="3.5" ry="3.5" style="stroke:#181818;stroke-width:0.5;" width="172.6084" x="336.86" y="560.79"/><ellipse cx="351.86" cy="576.79" fill="#B4A7E5" rx="11" ry="11" style="stroke:#181818;stroke-width:1;"/><path d="M347.7819,572.5556 L347.7819,570.3994 L355.1725,570.3994 L355.1725,572.5556 L352.7038,572.5556 L352.7038,580.6338 L355.1725,580.6338 L355.1725,582.79 L347.7819,582.79 L347.7819,580.6338 L350.2506,580.6338 L350.2506,572.5556 L347.7819,572.5556 Z " fill="#000000"/><text fill="#000000" font-family="sans-serif" font-size="14" font-style="italic" lengthAdjust="spacing" textLength="140.6084" x="365.86" y="581.6367">PopupSubMenuItem</text><line style="stroke:#181818;stroke-width:0.5;" x1="337.86" x2="508.4684" y1="592.79" y2="592.79"/><line style="stroke:#181818;stroke-width:0.5;" x1="337.86" x2="508.4684" y1="600.79" y2="600.79"/></g><!--class MenuItem--><g class="entity" data-qualified-name="MenuItem" data-source-line="39" id="ent0010"><rect fill="#D3D3D3" height="48" rx="3.5" ry="3.5" style="stroke:#181818;stroke-width:0.5;" width="102.3076" x="631.02" y="286.11"/><ellipse cx="646.02" cy="302.11" fill="#B4A7E5" rx="11" ry="11" style="stroke:#181818;stroke-width:1;"/><path d="M641.9419,297.8756 L641.9419,295.7194 L649.3325,295.7194 L649.3325,297.8756 L646.8638,297.8756 L646.8638,305.9538 L649.3325,305.9538 L649.3325,308.11 L641.9419,308.11 L641.9419,305.9538 L644.4106,305.9538 L644.4106,297.8756 L641.9419,297.8756 Z " fill="#000000"/><text fill="#000000" font-family="sans-serif" font-size="14" font-style="italic" lengthAdjust="spacing" textLength="70.3076" x="660.02" y="306.9567">MenuItem</text><line style="stroke:#181818;stroke-width:0.5;" x1="632.02" x2="732.3276" y1="318.11" y2="318.11"/><line style="stroke:#181818;stroke-width:0.5;" x1="632.02" x2="732.3276" y1="326.11" y2="326.11"/></g><!--class CheckedMenuItem--><g class="entity" data-qualified-name="CheckedMenuItem" data-source-line="40" id="ent0011"><rect fill="#D3D3D3" height="48" rx="3.5" ry="3.5" style="stroke:#181818;stroke-width:0.5;" width="162.874" x="863.73" y="427.53"/><ellipse cx="878.73" cy="443.53" fill="#B4A7E5" rx="11" ry="11" style="stroke:#181818;stroke-width:1;"/><path d="M874.6519,439.2956 L874.6519,437.1394 L882.0425,437.1394 L882.0425,439.2956 L879.5738,439.2956 L879.5738,447.3738 L882.0425,447.3738 L882.0425,449.53 L874.6519,449.53 L874.6519,447.3738 L877.1206,447.3738 L877.1206,439.2956 L874.6519,439.2956 Z " fill="#000000"/><text fill="#000000" font-family="sans-serif" font-size="14" font-style="italic" lengthAdjust="spacing" textLength="130.874" x="892.73" y="448.3767">CheckedMenuItem</text><line style="stroke:#181818;stroke-width:0.5;" x1="864.73" x2="1025.604" y1="459.53" y2="459.53"/><line style="stroke:#181818;stroke-width:0.5;" x1="864.73" x2="1025.604" y1="467.53" y2="467.53"/></g><!--class MatchMenuItem--><g class="entity" data-qualified-name="MatchMenuItem" data-source-line="41" id="ent0012"><rect fill="#D3D3D3" height="48" rx="3.5" ry="3.5" style="stroke:#181818;stroke-width:0.5;" width="145.0254" x="1111.66" y="560.79"/><ellipse cx="1126.66" cy="576.79" fill="#B4A7E5" rx="11" ry="11" style="stroke:#181818;stroke-width:1;"/><path d="M1122.5819,572.5556 L1122.5819,570.3994 L1129.9725,570.3994 L1129.9725,572.5556 L1127.5038,572.5556 L1127.5038,580.6338 L1129.9725,580.6338 L1129.9725,582.79 L1122.5819,582.79 L1122.5819,580.6338 L1125.0506,580.6338 L1125.0506,572.5556 L1122.5819,572.5556 Z " fill="#000000"/><text fill="#000000" font-family="sans-serif" font-size="14" font-style="italic" lengthAdjust="spacing" textLength="113.0254" x="1140.66" y="581.6367">MatchMenuItem</text><line style="stroke:#181818;stroke-width:0.5;" x1="1112.66" x2="1255.6854" y1="592.79" y2="592.79"/><line style="stroke:#181818;stroke-width:0.5;" x1="1112.66" x2="1255.6854" y1="600.79" y2="600.79"/></g><!--class MatchMenuItemRenderer--><g class="entity" data-qualified-name="MatchMenuItemRenderer" data-source-line="42" id="ent0013"><rect fill="#D3D3D3" height="48" rx="3.5" ry="3.5" style="stroke:#181818;stroke-width:0.5;" width="209.8643" x="1210.24" y="427.53"/><ellipse cx="1225.24" cy="443.53" fill="#A9DCDF" rx="11" ry="11" style="stroke:#181818;stroke-width:1;"/><path d="M1225.3494,438.8738 L1224.1931,443.9519 L1226.5213,443.9519 L1225.3494,438.8738 Z M1223.865,436.6394 L1226.8494,436.6394 L1230.2088,449.03 L1227.7556,449.03 L1226.99,445.9675 L1223.7088,445.9675 L1222.9588,449.03 L1220.5213,449.03 L1223.865,436.6394 Z " fill="#000000"/><text fill="#000000" font-family="sans-serif" font-size="14" font-style="italic" lengthAdjust="spacing" textLength="177.8643" x="1239.24" y="448.3767">MatchMenuItemRenderer</text><line style="stroke:#181818;stroke-width:0.5;" x1="1211.24" x2="1419.1043" y1="459.53" y2="459.53"/><line style="stroke:#181818;stroke-width:0.5;" x1="1211.24" x2="1419.1043" y1="467.53" y2="467.53"/></g><!--class MenuHandler--><g class="entity" data-qualified-name="MenuHandler" data-source-line="44" id="ent0014"><rect fill="#E2F0D9" height="56.2656" rx="3.5" ry="3.5" style="stroke:#385723;stroke-width:0.5;" width="125.5635" x="2547.39" y="7"/><ellipse cx="2562.39" cy="27.1328" fill="#B4A7E5" rx="11" ry="11" style="stroke:#181818;stroke-width:1;"/><path d="M2558.3119,22.8984 L2558.3119,20.7422 L2565.7025,20.7422 L2565.7025,22.8984 L2563.2338,22.8984 L2563.2338,30.9766 L2565.7025,30.9766 L2565.7025,33.1328 L2558.3119,33.1328 L2558.3119,30.9766 L2560.7806,30.9766 L2560.7806,22.8984 L2558.3119,22.8984 Z " fill="#000000"/><text fill="#000000" font-family="sans-serif" font-size="12" font-style="italic" lengthAdjust="spacing" textLength="58.002" x="2594.1708" y="23.1387">&#171;Gnome&#187;</text><text fill="#000000" font-family="sans-serif" font-size="14" font-style="italic" lengthAdjust="spacing" textLength="93.5635" x="2576.39" y="38.9639">MenuHandler</text><line style="stroke:#385723;stroke-width:0.5;" x1="2548.39" x2="2671.9535" y1="47.2656" y2="47.2656"/><line style="stroke:#385723;stroke-width:0.5;" x1="2548.39" x2="2671.9535" y1="55.2656" y2="55.2656"/></g><!--class GnomeRunner--><g class="entity" data-qualified-name="GnomeRunner" data-source-line="45" id="ent0015"><rect fill="#E2F0D9" height="56.2656" rx="3.5" ry="3.5" style="stroke:#385723;stroke-width:0.5;" width="133.2539" x="2473.54" y="281.98"/><ellipse cx="2488.54" cy="302.1128" fill="#ADD1B2" rx="11" ry="11" style="stroke:#181818;stroke-width:1;"/><path d="M2491.5088,307.7534 Q2490.9306,308.0503 2490.29,308.1909 Q2489.6494,308.3472 2488.9463,308.3472 Q2486.4463,308.3472 2485.1181,306.7066 Q2483.8056,305.0503 2483.8056,301.9253 Q2483.8056,298.8003 2485.1181,297.1441 Q2486.4463,295.4878 2488.9463,295.4878 Q2489.6494,295.4878 2490.29,295.6441 Q2490.9463,295.8003 2491.5088,296.0972 L2491.5088,298.8159 Q2490.8838,298.2378 2490.29,297.9722 Q2489.6963,297.6909 2489.0713,297.6909 Q2487.7275,297.6909 2487.04,298.7691 Q2486.3525,299.8316 2486.3525,301.9253 Q2486.3525,304.0191 2487.04,305.0972 Q2487.7275,306.1597 2489.0713,306.1597 Q2489.6963,306.1597 2490.29,305.8941 Q2490.8838,305.6128 2491.5088,305.0347 L2491.5088,307.7534 Z " fill="#000000"/><text fill="#000000" font-family="sans-serif" font-size="12" font-style="italic" lengthAdjust="spacing" textLength="58.002" x="2524.166" y="298.1187">&#171;Gnome&#187;</text><text fill="#000000" font-family="sans-serif" font-size="14" lengthAdjust="spacing" textLength="101.2539" x="2502.54" y="313.9439">GnomeRunner</text><line style="stroke:#385723;stroke-width:0.5;" x1="2474.54" x2="2605.7939" y1="322.2456" y2="322.2456"/><line style="stroke:#385723;stroke-width:0.5;" x1="2474.54" x2="2605.7939" y1="330.2456" y2="330.2456"/></g><!--class LiveScoreButton--><g class="entity" data-qualified-name="LiveScoreButton" data-source-line="46" id="ent0016"><rect fill="#E2F0D9" height="72.5625" rx="3.5" ry="3.5" style="stroke:#385723;stroke-width:0.5;" width="195.1689" x="2672.58" y="124.27"/><ellipse cx="2709.2556" cy="144.4028" fill="#ADD1B2" rx="11" ry="11" style="stroke:#181818;stroke-width:1;"/><path d="M2712.2243,150.0434 Q2711.6462,150.3403 2711.0056,150.4809 Q2710.365,150.6372 2709.6618,150.6372 Q2707.1618,150.6372 2705.8337,148.9966 Q2704.5212,147.3403 2704.5212,144.2153 Q2704.5212,141.0903 2705.8337,139.4341 Q2707.1618,137.7778 2709.6618,137.7778 Q2710.365,137.7778 2711.0056,137.9341 Q2711.6618,138.0903 2712.2243,138.3872 L2712.2243,141.1059 Q2711.5993,140.5278 2711.0056,140.2622 Q2710.4118,139.9809 2709.7868,139.9809 Q2708.4431,139.9809 2707.7556,141.0591 Q2707.0681,142.1216 2707.0681,144.2153 Q2707.0681,146.3091 2707.7556,147.3872 Q2708.4431,148.4497 2709.7868,148.4497 Q2710.4118,148.4497 2711.0056,148.1841 Q2711.5993,147.9028 2712.2243,147.3247 L2712.2243,150.0434 Z " fill="#000000"/><text fill="#000000" font-family="sans-serif" font-size="12" font-style="italic" lengthAdjust="spacing" textLength="58.002" x="2756.5719" y="140.4087">&#171;Gnome&#187;</text><text fill="#000000" font-family="sans-serif" font-size="14" lengthAdjust="spacing" textLength="115.001" x="2728.0724" y="156.2339">LiveScoreButton</text><line style="stroke:#385723;stroke-width:0.5;" x1="2673.58" x2="2866.7489" y1="164.5356" y2="164.5356"/><text fill="#000000" font-family="sans-serif" font-size="14" lengthAdjust="spacing" textLength="183.1689" x="2678.58" y="181.5307">Gnome PanelMenu.Button</text><line style="stroke:#385723;stroke-width:0.5;" x1="2673.58" x2="2866.7489" y1="188.8325" y2="188.8325"/></g><!--class LiveScoreExtension--><g class="entity" data-qualified-name="LiveScoreExtension" data-source-line="49" id="ent0017"><rect fill="#E2F0D9" height="72.5625" rx="3.5" ry="3.5" style="stroke:#385723;stroke-width:0.5;" width="168.835" x="2692.75" y="273.83"/><ellipse cx="2707.75" cy="293.9628" fill="#ADD1B2" rx="11" ry="11" style="stroke:#181818;stroke-width:1;"/><path d="M2710.7188,299.6034 Q2710.1406,299.9003 2709.5,300.0409 Q2708.8594,300.1972 2708.1563,300.1972 Q2705.6563,300.1972 2704.3281,298.5566 Q2703.0156,296.9003 2703.0156,293.7753 Q2703.0156,290.6503 2704.3281,288.9941 Q2705.6563,287.3378 2708.1563,287.3378 Q2708.8594,287.3378 2709.5,287.4941 Q2710.1563,287.6503 2710.7188,287.9472 L2710.7188,290.6659 Q2710.0938,290.0878 2709.5,289.8222 Q2708.9063,289.5409 2708.2813,289.5409 Q2706.9375,289.5409 2706.25,290.6191 Q2705.5625,291.6816 2705.5625,293.7753 Q2705.5625,295.8691 2706.25,296.9472 Q2706.9375,298.0097 2708.2813,298.0097 Q2708.9063,298.0097 2709.5,297.7441 Q2710.0938,297.4628 2710.7188,296.8847 L2710.7188,299.6034 Z " fill="#000000"/><text fill="#000000" font-family="sans-serif" font-size="12" font-style="italic" lengthAdjust="spacing" textLength="58.002" x="2761.1665" y="289.9687">&#171;Gnome&#187;</text><text fill="#000000" font-family="sans-serif" font-size="14" lengthAdjust="spacing" textLength="136.835" x="2721.75" y="305.7939">LiveScoreExtension</text><line style="stroke:#385723;stroke-width:0.5;" x1="2693.75" x2="2860.585" y1="314.0956" y2="314.0956"/><text fill="#000000" font-family="sans-serif" font-size="14" lengthAdjust="spacing" textLength="123.7168" x="2698.75" y="331.0907">Gnome Extension</text><line style="stroke:#385723;stroke-width:0.5;" x1="2693.75" x2="2860.585" y1="338.3925" y2="338.3925"/></g><!--class GnomeRenderer--><g class="entity" data-qualified-name="GnomeRenderer" data-source-line="52" id="ent0018"><rect fill="#E2F0D9" height="56.2656" rx="3.5" ry="3.5" style="stroke:#385723;stroke-width:0.5;" width="147.377" x="2321.48" y="556.66"/><ellipse cx="2336.48" cy="576.7928" fill="#ADD1B2" rx="11" ry="11" style="stroke:#181818;stroke-width:1;"/><path d="M2339.4488,582.4334 Q2338.8706,582.7303 2338.23,582.8709 Q2337.5894,583.0272 2336.8863,583.0272 Q2334.3863,583.0272 2333.0581,581.3866 Q2331.7456,579.7303 2331.7456,576.6053 Q2331.7456,573.4803 2333.0581,571.8241 Q2334.3863,570.1678 2336.8863,570.1678 Q2337.5894,570.1678 2338.23,570.3241 Q2338.8863,570.4803 2339.4488,570.7772 L2339.4488,573.4959 Q2338.8238,572.9178 2338.23,572.6522 Q2337.6363,572.3709 2337.0113,572.3709 Q2335.6675,572.3709 2334.98,573.4491 Q2334.2925,574.5116 2334.2925,576.6053 Q2334.2925,578.6991 2334.98,579.7772 Q2335.6675,580.8397 2337.0113,580.8397 Q2337.6363,580.8397 2338.23,580.5741 Q2338.8238,580.2928 2339.4488,579.7147 L2339.4488,582.4334 Z " fill="#000000"/><text fill="#000000" font-family="sans-serif" font-size="12" font-style="italic" lengthAdjust="spacing" textLength="58.002" x="2379.1675" y="572.7987">&#171;Gnome&#187;</text><text fill="#000000" font-family="sans-serif" font-size="14" lengthAdjust="spacing" textLength="115.377" x="2350.48" y="588.6239">GnomeRenderer</text><line style="stroke:#385723;stroke-width:0.5;" x1="2322.48" x2="2467.857" y1="596.9256" y2="596.9256"/><line style="stroke:#385723;stroke-width:0.5;" x1="2322.48" x2="2467.857" y1="604.9256" y2="604.9256"/></g><!--class FloatingScoreWindow--><g class="entity" data-qualified-name="FloatingScoreWindow" data-source-line="53" id="ent0019"><rect fill="#E2F0D9" height="56.2656" rx="3.5" ry="3.5" style="stroke:#385723;stroke-width:0.5;" width="183.252" x="2303.54" y="423.39"/><ellipse cx="2318.54" cy="443.5228" fill="#ADD1B2" rx="11" ry="11" style="stroke:#181818;stroke-width:1;"/><path d="M2321.5088,449.1634 Q2320.9306,449.4603 2320.29,449.6009 Q2319.6494,449.7572 2318.9463,449.7572 Q2316.4463,449.7572 2315.1181,448.1166 Q2313.8056,446.4603 2313.8056,443.3353 Q2313.8056,440.2103 2315.1181,438.5541 Q2316.4463,436.8978 2318.9463,436.8978 Q2319.6494,436.8978 2320.29,437.0541 Q2320.9463,437.2103 2321.5088,437.5072 L2321.5088,440.2259 Q2320.8838,439.6478 2320.29,439.3822 Q2319.6963,439.1009 2319.0713,439.1009 Q2317.7275,439.1009 2317.04,440.1791 Q2316.3525,441.2416 2316.3525,443.3353 Q2316.3525,445.4291 2317.04,446.5072 Q2317.7275,447.5697 2319.0713,447.5697 Q2319.6963,447.5697 2320.29,447.3041 Q2320.8838,447.0228 2321.5088,446.4447 L2321.5088,449.1634 Z " fill="#000000"/><text fill="#000000" font-family="sans-serif" font-size="12" font-style="italic" lengthAdjust="spacing" textLength="58.002" x="2379.165" y="439.5287">&#171;Gnome&#187;</text><text fill="#000000" font-family="sans-serif" font-size="14" lengthAdjust="spacing" textLength="151.252" x="2332.54" y="455.3539">FloatingScoreWindow</text><line style="stroke:#385723;stroke-width:0.5;" x1="2304.54" x2="2485.792" y1="463.6556" y2="463.6556"/><line style="stroke:#385723;stroke-width:0.5;" x1="2304.54" x2="2485.792" y1="471.6556" y2="471.6556"/></g><!--class GnomePopupSubMenuItem--><g class="entity" data-qualified-name="GnomePopupSubMenuItem" data-source-line="54" id="ent0020"><rect fill="#E2F0D9" height="56.2656" rx="3.5" ry="3.5" style="stroke:#385723;stroke-width:0.5;" width="223.1465" x="500.6" y="673.92"/><ellipse cx="515.6" cy="694.0528" fill="#ADD1B2" rx="11" ry="11" style="stroke:#181818;stroke-width:1;"/><path d="M518.5688,699.6934 Q517.9906,699.9903 517.35,700.1309 Q516.7094,700.2872 516.0063,700.2872 Q513.5063,700.2872 512.1781,698.6466 Q510.8656,696.9903 510.8656,693.8653 Q510.8656,690.7403 512.1781,689.0841 Q513.5063,687.4278 516.0063,687.4278 Q516.7094,687.4278 517.35,687.5841 Q518.0063,687.7403 518.5688,688.0372 L518.5688,690.7559 Q517.9438,690.1778 517.35,689.9122 Q516.7563,689.6309 516.1313,689.6309 Q514.7875,689.6309 514.1,690.7091 Q513.4125,691.7716 513.4125,693.8653 Q513.4125,695.9591 514.1,697.0372 Q514.7875,698.0997 516.1313,698.0997 Q516.7563,698.0997 517.35,697.8341 Q517.9438,697.5528 518.5688,696.9747 L518.5688,699.6934 Z " fill="#000000"/><text fill="#000000" font-family="sans-serif" font-size="12" font-style="italic" lengthAdjust="spacing" textLength="58.002" x="596.1723" y="690.0587">&#171;Gnome&#187;</text><text fill="#000000" font-family="sans-serif" font-size="14" lengthAdjust="spacing" textLength="191.1465" x="529.6" y="705.8839">GnomePopupSubMenuItem</text><line style="stroke:#385723;stroke-width:0.5;" x1="501.6" x2="722.7465" y1="714.1856" y2="714.1856"/><line style="stroke:#385723;stroke-width:0.5;" x1="501.6" x2="722.7465" y1="722.1856" y2="722.1856"/></g><!--class GnomeLinkMenuItem--><g class="entity" data-qualified-name="GnomeLinkMenuItem" data-source-line="55" id="ent0021"><rect fill="#E2F0D9" height="56.2656" rx="3.5" ry="3.5" style="stroke:#385723;stroke-width:0.5;" width="181.5156" x="166.41" y="423.39"/><ellipse cx="181.41" cy="443.5228" fill="#ADD1B2" rx="11" ry="11" style="stroke:#181818;stroke-width:1;"/><path d="M184.3788,449.1634 Q183.8006,449.4603 183.16,449.6009 Q182.5194,449.7572 181.8163,449.7572 Q179.3163,449.7572 177.9881,448.1166 Q176.6756,446.4603 176.6756,443.3353 Q176.6756,440.2103 177.9881,438.5541 Q179.3163,436.8978 181.8163,436.8978 Q182.5194,436.8978 183.16,437.0541 Q183.8163,437.2103 184.3788,437.5072 L184.3788,440.2259 Q183.7538,439.6478 183.16,439.3822 Q182.5663,439.1009 181.9413,439.1009 Q180.5975,439.1009 179.91,440.1791 Q179.2225,441.2416 179.2225,443.3353 Q179.2225,445.4291 179.91,446.5072 Q180.5975,447.5697 181.9413,447.5697 Q182.5663,447.5697 183.16,447.3041 Q183.7538,447.0228 184.3788,446.4447 L184.3788,449.1634 Z " fill="#000000"/><text fill="#000000" font-family="sans-serif" font-size="12" font-style="italic" lengthAdjust="spacing" textLength="58.002" x="241.1668" y="439.5287">&#171;Gnome&#187;</text><text fill="#000000" font-family="sans-serif" font-size="14" lengthAdjust="spacing" textLength="149.5156" x="195.41" y="455.3539">GnomeLinkMenuItem</text><line style="stroke:#385723;stroke-width:0.5;" x1="167.41" x2="346.9256" y1="463.6556" y2="463.6556"/><line style="stroke:#385723;stroke-width:0.5;" x1="167.41" x2="346.9256" y1="471.6556" y2="471.6556"/></g><!--class GnomeCheckedMenuItem--><g class="entity" data-qualified-name="GnomeCheckedMenuItem" data-source-line="56" id="ent0022"><rect fill="#E2F0D9" height="56.2656" rx="3.5" ry="3.5" style="stroke:#385723;stroke-width:0.5;" width="213.4121" x="544.46" y="556.66"/><ellipse cx="559.46" cy="576.7928" fill="#ADD1B2" rx="11" ry="11" style="stroke:#181818;stroke-width:1;"/><path d="M562.4288,582.4334 Q561.8506,582.7303 561.21,582.8709 Q560.5694,583.0272 559.8663,583.0272 Q557.3663,583.0272 556.0381,581.3866 Q554.7256,579.7303 554.7256,576.6053 Q554.7256,573.4803 556.0381,571.8241 Q557.3663,570.1678 559.8663,570.1678 Q560.5694,570.1678 561.21,570.3241 Q561.8663,570.4803 562.4288,570.7772 L562.4288,573.4959 Q561.8038,572.9178 561.21,572.6522 Q560.6163,572.3709 559.9913,572.3709 Q558.6475,572.3709 557.96,573.4491 Q557.2725,574.5116 557.2725,576.6053 Q557.2725,578.6991 557.96,579.7772 Q558.6475,580.8397 559.9913,580.8397 Q560.6163,580.8397 561.21,580.5741 Q561.8038,580.2928 562.4288,579.7147 L562.4288,582.4334 Z " fill="#000000"/><text fill="#000000" font-family="sans-serif" font-size="12" font-style="italic" lengthAdjust="spacing" textLength="58.002" x="635.1651" y="572.7987">&#171;Gnome&#187;</text><text fill="#000000" font-family="sans-serif" font-size="14" lengthAdjust="spacing" textLength="181.4121" x="573.46" y="588.6239">GnomeCheckedMenuItem</text><line style="stroke:#385723;stroke-width:0.5;" x1="545.46" x2="756.8721" y1="596.9256" y2="596.9256"/><line style="stroke:#385723;stroke-width:0.5;" x1="545.46" x2="756.8721" y1="604.9256" y2="604.9256"/></g><!--class GnomeMatchMenuItem--><g class="entity" data-qualified-name="GnomeMatchMenuItem" data-source-line="57" id="ent0023"><rect fill="#E2F0D9" height="56.2656" rx="3.5" ry="3.5" style="stroke:#385723;stroke-width:0.5;" width="195.5635" x="1452.39" y="673.92"/><ellipse cx="1467.39" cy="694.0528" fill="#ADD1B2" rx="11" ry="11" style="stroke:#181818;stroke-width:1;"/><path d="M1470.3588,699.6934 Q1469.7806,699.9903 1469.14,700.1309 Q1468.4994,700.2872 1467.7963,700.2872 Q1465.2963,700.2872 1463.9681,698.6466 Q1462.6556,696.9903 1462.6556,693.8653 Q1462.6556,690.7403 1463.9681,689.0841 Q1465.2963,687.4278 1467.7963,687.4278 Q1468.4994,687.4278 1469.14,687.5841 Q1469.7963,687.7403 1470.3588,688.0372 L1470.3588,690.7559 Q1469.7338,690.1778 1469.14,689.9122 Q1468.5463,689.6309 1467.9213,689.6309 Q1466.5775,689.6309 1465.89,690.7091 Q1465.2025,691.7716 1465.2025,693.8653 Q1465.2025,695.9591 1465.89,697.0372 Q1466.5775,698.0997 1467.9213,698.0997 Q1468.5463,698.0997 1469.14,697.8341 Q1469.7338,697.5528 1470.3588,696.9747 L1470.3588,699.6934 Z " fill="#000000"/><text fill="#000000" font-family="sans-serif" font-size="12" font-style="italic" lengthAdjust="spacing" textLength="58.002" x="1534.1708" y="690.0587">&#171;Gnome&#187;</text><text fill="#000000" font-family="sans-serif" font-size="14" lengthAdjust="spacing" textLength="163.5635" x="1481.39" y="705.8839">GnomeMatchMenuItem</text><line style="stroke:#385723;stroke-width:0.5;" x1="1453.39" x2="1646.9535" y1="714.1856" y2="714.1856"/><line style="stroke:#385723;stroke-width:0.5;" x1="1453.39" x2="1646.9535" y1="722.1856" y2="722.1856"/></g><!--class MenuRenderer--><g class="entity" data-qualified-name="MenuRenderer" data-source-line="59" id="ent0024"><rect fill="#DDEBF7" height="56.2656" rx="3.5" ry="3.5" style="stroke:#1F4E78;stroke-width:0.5;" width="135.2773" x="1455.53" y="423.39"/><ellipse cx="1470.53" cy="443.5228" fill="#ADD1B2" rx="11" ry="11" style="stroke:#181818;stroke-width:1;"/><path d="M1473.4988,449.1634 Q1472.9206,449.4603 1472.28,449.6009 Q1471.6394,449.7572 1470.9363,449.7572 Q1468.4363,449.7572 1467.1081,448.1166 Q1465.7956,446.4603 1465.7956,443.3353 Q1465.7956,440.2103 1467.1081,438.5541 Q1468.4363,436.8978 1470.9363,436.8978 Q1471.6394,436.8978 1472.28,437.0541 Q1472.9363,437.2103 1473.4988,437.5072 L1473.4988,440.2259 Q1472.8738,439.6478 1472.28,439.3822 Q1471.6863,439.1009 1471.0613,439.1009 Q1469.7175,439.1009 1469.03,440.1791 Q1468.3425,441.2416 1468.3425,443.3353 Q1468.3425,445.4291 1469.03,446.5072 Q1469.7175,447.5697 1471.0613,447.5697 Q1471.6863,447.5697 1472.28,447.3041 Q1472.8738,447.0228 1473.4988,446.4447 L1473.4988,449.1634 Z " fill="#000000"/><text fill="#000000" font-family="sans-serif" font-size="12" font-style="italic" lengthAdjust="spacing" textLength="64.166" x="1504.0857" y="439.5287">&#171;Electron&#187;</text><text fill="#000000" font-family="sans-serif" font-size="14" lengthAdjust="spacing" textLength="103.2773" x="1484.53" y="455.3539">MenuRenderer</text><line style="stroke:#1F4E78;stroke-width:0.5;" x1="1456.53" x2="1589.8073" y1="463.6556" y2="463.6556"/><line style="stroke:#1F4E78;stroke-width:0.5;" x1="1456.53" x2="1589.8073" y1="471.6556" y2="471.6556"/></g><!--class ElectronLiveViewManager--><g class="entity" data-qualified-name="ElectronLiveViewManager" data-source-line="60" id="ent0025"><rect fill="#DDEBF7" height="56.2656" rx="3.5" ry="3.5" style="stroke:#1F4E78;stroke-width:0.5;" width="213.2139" x="2832.56" y="673.92"/><ellipse cx="2847.56" cy="694.0528" fill="#ADD1B2" rx="11" ry="11" style="stroke:#181818;stroke-width:1;"/><path d="M2850.5288,699.6934 Q2849.9506,699.9903 2849.31,700.1309 Q2848.6694,700.2872 2847.9663,700.2872 Q2845.4663,700.2872 2844.1381,698.6466 Q2842.8256,696.9903 2842.8256,693.8653 Q2842.8256,690.7403 2844.1381,689.0841 Q2845.4663,687.4278 2847.9663,687.4278 Q2848.6694,687.4278 2849.31,687.5841 Q2849.9663,687.7403 2850.5288,688.0372 L2850.5288,690.7559 Q2849.9038,690.1778 2849.31,689.9122 Q2848.7163,689.6309 2848.0913,689.6309 Q2846.7475,689.6309 2846.06,690.7091 Q2845.3725,691.7716 2845.3725,693.8653 Q2845.3725,695.9591 2846.06,697.0372 Q2846.7475,698.0997 2848.0913,698.0997 Q2848.7163,698.0997 2849.31,697.8341 Q2849.9038,697.5528 2850.5288,696.9747 L2850.5288,699.6934 Z " fill="#000000"/><text fill="#000000" font-family="sans-serif" font-size="12" font-style="italic" lengthAdjust="spacing" textLength="64.166" x="2920.0839" y="690.0587">&#171;Electron&#187;</text><text fill="#000000" font-family="sans-serif" font-size="14" lengthAdjust="spacing" textLength="181.2139" x="2861.56" y="705.8839">ElectronLiveViewManager</text><line style="stroke:#1F4E78;stroke-width:0.5;" x1="2833.56" x2="3044.7739" y1="714.1856" y2="714.1856"/><line style="stroke:#1F4E78;stroke-width:0.5;" x1="2833.56" x2="3044.7739" y1="722.1856" y2="722.1856"/></g><!--class LiveViewRenderer--><g class="entity" data-qualified-name="LiveViewRenderer" data-source-line="61" id="ent0026"><rect fill="#DDEBF7" height="56.2656" rx="3.5" ry="3.5" style="stroke:#1F4E78;stroke-width:0.5;" width="158.957" x="1625.69" y="423.39"/><ellipse cx="1640.69" cy="443.5228" fill="#ADD1B2" rx="11" ry="11" style="stroke:#181818;stroke-width:1;"/><path d="M1643.6588,449.1634 Q1643.0806,449.4603 1642.44,449.6009 Q1641.7994,449.7572 1641.0963,449.7572 Q1638.5963,449.7572 1637.2681,448.1166 Q1635.9556,446.4603 1635.9556,443.3353 Q1635.9556,440.2103 1637.2681,438.5541 Q1638.5963,436.8978 1641.0963,436.8978 Q1641.7994,436.8978 1642.44,437.0541 Q1643.0963,437.2103 1643.6588,437.5072 L1643.6588,440.2259 Q1643.0338,439.6478 1642.44,439.3822 Q1641.8463,439.1009 1641.2213,439.1009 Q1639.8775,439.1009 1639.19,440.1791 Q1638.5025,441.2416 1638.5025,443.3353 Q1638.5025,445.4291 1639.19,446.5072 Q1639.8775,447.5697 1641.2213,447.5697 Q1641.8463,447.5697 1642.44,447.3041 Q1643.0338,447.0228 1643.6588,446.4447 L1643.6588,449.1634 Z " fill="#000000"/><text fill="#000000" font-family="sans-serif" font-size="12" font-style="italic" lengthAdjust="spacing" textLength="64.166" x="1686.0855" y="439.5287">&#171;Electron&#187;</text><text fill="#000000" font-family="sans-serif" font-size="14" lengthAdjust="spacing" textLength="126.957" x="1654.69" y="455.3539">LiveViewRenderer</text><line style="stroke:#1F4E78;stroke-width:0.5;" x1="1626.69" x2="1783.647" y1="463.6556" y2="463.6556"/><line style="stroke:#1F4E78;stroke-width:0.5;" x1="1626.69" x2="1783.647" y1="471.6556" y2="471.6556"/></g><!--class ElectronRenderer--><g class="entity" data-qualified-name="ElectronRenderer" data-source-line="62" id="ent0027"><rect fill="#DDEBF7" height="56.2656" rx="3.5" ry="3.5" style="stroke:#1F4E78;stroke-width:0.5;" width="154.5684" x="1643.88" y="556.66"/><ellipse cx="1658.88" cy="576.7928" fill="#ADD1B2" rx="11" ry="11" style="stroke:#181818;stroke-width:1;"/><path d="M1661.8488,582.4334 Q1661.2706,582.7303 1660.63,582.8709 Q1659.9894,583.0272 1659.2863,583.0272 Q1656.7863,583.0272 1655.4581,581.3866 Q1654.1456,579.7303 1654.1456,576.6053 Q1654.1456,573.4803 1655.4581,571.8241 Q1656.7863,570.1678 1659.2863,570.1678 Q1659.9894,570.1678 1660.63,570.3241 Q1661.2863,570.4803 1661.8488,570.7772 L1661.8488,573.4959 Q1661.2238,572.9178 1660.63,572.6522 Q1660.0363,572.3709 1659.4113,572.3709 Q1658.0675,572.3709 1657.38,573.4491 Q1656.6925,574.5116 1656.6925,576.6053 Q1656.6925,578.6991 1657.38,579.7772 Q1658.0675,580.8397 1659.4113,580.8397 Q1660.0363,580.8397 1660.63,580.5741 Q1661.2238,580.2928 1661.8488,579.7147 L1661.8488,582.4334 Z " fill="#000000"/><text fill="#000000" font-family="sans-serif" font-size="12" font-style="italic" lengthAdjust="spacing" textLength="64.166" x="1702.0812" y="572.7987">&#171;Electron&#187;</text><text fill="#000000" font-family="sans-serif" font-size="14" lengthAdjust="spacing" textLength="122.5684" x="1672.88" y="588.6239">ElectronRenderer</text><line style="stroke:#1F4E78;stroke-width:0.5;" x1="1644.88" x2="1797.4484" y1="596.9256" y2="596.9256"/><line style="stroke:#1F4E78;stroke-width:0.5;" x1="1644.88" x2="1797.4484" y1="604.9256" y2="604.9256"/></g><!--class ElectronPopupSubMenuItem--><g class="entity" data-qualified-name="ElectronPopupSubMenuItem" data-source-line="63" id="ent0028"><rect fill="#DDEBF7" height="56.2656" rx="3.5" ry="3.5" style="stroke:#1F4E78;stroke-width:0.5;" width="230.3379" x="7" y="673.92"/><ellipse cx="22" cy="694.0528" fill="#ADD1B2" rx="11" ry="11" style="stroke:#181818;stroke-width:1;"/><path d="M24.9688,699.6934 Q24.3906,699.9903 23.75,700.1309 Q23.1094,700.2872 22.4063,700.2872 Q19.9063,700.2872 18.5781,698.6466 Q17.2656,696.9903 17.2656,693.8653 Q17.2656,690.7403 18.5781,689.0841 Q19.9063,687.4278 22.4063,687.4278 Q23.1094,687.4278 23.75,687.5841 Q24.4063,687.7403 24.9688,688.0372 L24.9688,690.7559 Q24.3438,690.1778 23.75,689.9122 Q23.1563,689.6309 22.5313,689.6309 Q21.1875,689.6309 20.5,690.7091 Q19.8125,691.7716 19.8125,693.8653 Q19.8125,695.9591 20.5,697.0372 Q21.1875,698.0997 22.5313,698.0997 Q23.1563,698.0997 23.75,697.8341 Q24.3438,697.5528 24.9688,696.9747 L24.9688,699.6934 Z " fill="#000000"/><text fill="#000000" font-family="sans-serif" font-size="12" font-style="italic" lengthAdjust="spacing" textLength="64.166" x="103.0859" y="690.0587">&#171;Electron&#187;</text><text fill="#000000" font-family="sans-serif" font-size="14" lengthAdjust="spacing" textLength="198.3379" x="36" y="705.8839">ElectronPopupSubMenuItem</text><line style="stroke:#1F4E78;stroke-width:0.5;" x1="8" x2="236.3379" y1="714.1856" y2="714.1856"/><line style="stroke:#1F4E78;stroke-width:0.5;" x1="8" x2="236.3379" y1="722.1856" y2="722.1856"/></g><!--class ElectronLinkMenuItem--><g class="entity" data-qualified-name="ElectronLinkMenuItem" data-source-line="64" id="ent0029"><rect fill="#DDEBF7" height="56.2656" rx="3.5" ry="3.5" style="stroke:#1F4E78;stroke-width:0.5;" width="188.707" x="382.82" y="423.39"/><ellipse cx="397.82" cy="443.5228" fill="#ADD1B2" rx="11" ry="11" style="stroke:#181818;stroke-width:1;"/><path d="M400.7888,449.1634 Q400.2106,449.4603 399.57,449.6009 Q398.9294,449.7572 398.2263,449.7572 Q395.7263,449.7572 394.3981,448.1166 Q393.0856,446.4603 393.0856,443.3353 Q393.0856,440.2103 394.3981,438.5541 Q395.7263,436.8978 398.2263,436.8978 Q398.9294,436.8978 399.57,437.0541 Q400.2263,437.2103 400.7888,437.5072 L400.7888,440.2259 Q400.1638,439.6478 399.57,439.3822 Q398.9763,439.1009 398.3513,439.1009 Q397.0075,439.1009 396.32,440.1791 Q395.6325,441.2416 395.6325,443.3353 Q395.6325,445.4291 396.32,446.5072 Q397.0075,447.5697 398.3513,447.5697 Q398.9763,447.5697 399.57,447.3041 Q400.1638,447.0228 400.7888,446.4447 L400.7888,449.1634 Z " fill="#000000"/><text fill="#000000" font-family="sans-serif" font-size="12" font-style="italic" lengthAdjust="spacing" textLength="64.166" x="458.0905" y="439.5287">&#171;Electron&#187;</text><text fill="#000000" font-family="sans-serif" font-size="14" lengthAdjust="spacing" textLength="156.707" x="411.82" y="455.3539">ElectronLinkMenuItem</text><line style="stroke:#1F4E78;stroke-width:0.5;" x1="383.82" x2="570.527" y1="463.6556" y2="463.6556"/><line style="stroke:#1F4E78;stroke-width:0.5;" x1="383.82" x2="570.527" y1="471.6556" y2="471.6556"/></g><!--class ElectronCheckedMenuItemCommon--><g class="entity" data-qualified-name="ElectronCheckedMenuItemCommon" data-source-line="65" id="ent0030"><rect fill="#DDEBF7" height="56.2656" rx="3.5" ry="3.5" style="stroke:#1F4E78;stroke-width:0.5;" width="283.6582" x="793.34" y="556.66"/><ellipse cx="808.34" cy="576.7928" fill="#A9DCDF" rx="11" ry="11" style="stroke:#181818;stroke-width:1;"/><path d="M808.4494,572.1366 L807.2931,577.2147 L809.6213,577.2147 L808.4494,572.1366 Z M806.965,569.9022 L809.9494,569.9022 L813.3088,582.2928 L810.8556,582.2928 L810.09,579.2303 L806.8088,579.2303 L806.0588,582.2928 L803.6213,582.2928 L806.965,569.9022 Z " fill="#000000"/><text fill="#000000" font-family="sans-serif" font-size="12" font-style="italic" lengthAdjust="spacing" textLength="64.166" x="916.0861" y="572.7987">&#171;Electron&#187;</text><text fill="#000000" font-family="sans-serif" font-size="14" font-style="italic" lengthAdjust="spacing" textLength="251.6582" x="822.34" y="588.6239">ElectronCheckedMenuItemCommon</text><line style="stroke:#1F4E78;stroke-width:0.5;" x1="794.34" x2="1075.9982" y1="596.9256" y2="596.9256"/><line style="stroke:#1F4E78;stroke-width:0.5;" x1="794.34" x2="1075.9982" y1="604.9256" y2="604.9256"/></g><!--class ElectronCheckedMenuItem--><g class="entity" data-qualified-name="ElectronCheckedMenuItem" data-source-line="66" id="ent0031"><rect fill="#DDEBF7" height="56.2656" rx="3.5" ry="3.5" style="stroke:#1F4E78;stroke-width:0.5;" width="220.6035" x="758.87" y="673.92"/><ellipse cx="773.87" cy="694.0528" fill="#ADD1B2" rx="11" ry="11" style="stroke:#181818;stroke-width:1;"/><path d="M776.8388,699.6934 Q776.2606,699.9903 775.62,700.1309 Q774.9794,700.2872 774.2763,700.2872 Q771.7763,700.2872 770.4481,698.6466 Q769.1356,696.9903 769.1356,693.8653 Q769.1356,690.7403 770.4481,689.0841 Q771.7763,687.4278 774.2763,687.4278 Q774.9794,687.4278 775.62,687.5841 Q776.2763,687.7403 776.8388,688.0372 L776.8388,690.7559 Q776.2138,690.1778 775.62,689.9122 Q775.0263,689.6309 774.4013,689.6309 Q773.0575,689.6309 772.37,690.7091 Q771.6825,691.7716 771.6825,693.8653 Q771.6825,695.9591 772.37,697.0372 Q773.0575,698.0997 774.4013,698.0997 Q775.0263,698.0997 775.62,697.8341 Q776.2138,697.5528 776.8388,696.9747 L776.8388,699.6934 Z " fill="#000000"/><text fill="#000000" font-family="sans-serif" font-size="12" font-style="italic" lengthAdjust="spacing" textLength="64.166" x="850.0888" y="690.0587">&#171;Electron&#187;</text><text fill="#000000" font-family="sans-serif" font-size="14" lengthAdjust="spacing" textLength="188.6035" x="787.87" y="705.8839">ElectronCheckedMenuItem</text><line style="stroke:#1F4E78;stroke-width:0.5;" x1="759.87" x2="978.4735" y1="714.1856" y2="714.1856"/><line style="stroke:#1F4E78;stroke-width:0.5;" x1="759.87" x2="978.4735" y1="722.1856" y2="722.1856"/></g><!--class ElectronMatchMenuItem--><g class="entity" data-qualified-name="ElectronMatchMenuItem" data-source-line="67" id="ent0032"><rect fill="#DDEBF7" height="56.2656" rx="3.5" ry="3.5" style="stroke:#1F4E78;stroke-width:0.5;" width="202.7549" x="1014.79" y="673.92"/><ellipse cx="1029.79" cy="694.0528" fill="#ADD1B2" rx="11" ry="11" style="stroke:#181818;stroke-width:1;"/><path d="M1032.7588,699.6934 Q1032.1806,699.9903 1031.54,700.1309 Q1030.8994,700.2872 1030.1963,700.2872 Q1027.6963,700.2872 1026.3681,698.6466 Q1025.0556,696.9903 1025.0556,693.8653 Q1025.0556,690.7403 1026.3681,689.0841 Q1027.6963,687.4278 1030.1963,687.4278 Q1030.8994,687.4278 1031.54,687.5841 Q1032.1963,687.7403 1032.7588,688.0372 L1032.7588,690.7559 Q1032.1338,690.1778 1031.54,689.9122 Q1030.9463,689.6309 1030.3213,689.6309 Q1028.9775,689.6309 1028.29,690.7091 Q1027.6025,691.7716 1027.6025,693.8653 Q1027.6025,695.9591 1028.29,697.0372 Q1028.9775,698.0997 1030.3213,698.0997 Q1030.9463,698.0997 1031.54,697.8341 Q1032.1338,697.5528 1032.7588,696.9747 L1032.7588,699.6934 Z " fill="#000000"/><text fill="#000000" font-family="sans-serif" font-size="12" font-style="italic" lengthAdjust="spacing" textLength="64.166" x="1097.0844" y="690.0587">&#171;Electron&#187;</text><text fill="#000000" font-family="sans-serif" font-size="14" lengthAdjust="spacing" textLength="170.7549" x="1043.79" y="705.8839">ElectronMatchMenuItem</text><line style="stroke:#1F4E78;stroke-width:0.5;" x1="1015.79" x2="1216.5449" y1="714.1856" y2="714.1856"/><line style="stroke:#1F4E78;stroke-width:0.5;" x1="1015.79" x2="1216.5449" y1="722.1856" y2="722.1856"/></g><!--class RNRunner--><g class="entity" data-qualified-name="RNRunner" data-source-line="69" id="ent0033"><rect fill="#FFF2CC" height="56.2656" rx="3.5" ry="3.5" style="stroke:#833C0C;stroke-width:0.5;" width="102.916" x="1819.71" y="423.39"/><ellipse cx="1834.71" cy="443.5228" fill="#ADD1B2" rx="11" ry="11" style="stroke:#181818;stroke-width:1;"/><path d="M1837.6788,449.1634 Q1837.1006,449.4603 1836.46,449.6009 Q1835.8194,449.7572 1835.1163,449.7572 Q1832.6163,449.7572 1831.2881,448.1166 Q1829.9756,446.4603 1829.9756,443.3353 Q1829.9756,440.2103 1831.2881,438.5541 Q1832.6163,436.8978 1835.1163,436.8978 Q1835.8194,436.8978 1836.46,437.0541 Q1837.1163,437.2103 1837.6788,437.5072 L1837.6788,440.2259 Q1837.0538,439.6478 1836.46,439.3822 Q1835.8663,439.1009 1835.2413,439.1009 Q1833.8975,439.1009 1833.21,440.1791 Q1832.5225,441.2416 1832.5225,443.3353 Q1832.5225,445.4291 1833.21,446.5072 Q1833.8975,447.5697 1835.2413,447.5697 Q1835.8663,447.5697 1836.46,447.3041 Q1837.0538,447.0228 1837.6788,446.4447 L1837.6788,449.1634 Z " fill="#000000"/><text fill="#000000" font-family="sans-serif" font-size="12" font-style="italic" lengthAdjust="spacing" textLength="31.998" x="1868.169" y="439.5287">&#171;RN&#187;</text><text fill="#000000" font-family="sans-serif" font-size="14" lengthAdjust="spacing" textLength="70.916" x="1848.71" y="455.3539">RNRunner</text><line style="stroke:#833C0C;stroke-width:0.5;" x1="1820.71" x2="1921.626" y1="463.6556" y2="463.6556"/><line style="stroke:#833C0C;stroke-width:0.5;" x1="1820.71" x2="1921.626" y1="471.6556" y2="471.6556"/></g><!--class RNLiveViewManager--><g class="entity" data-qualified-name="RNLiveViewManager" data-source-line="70" id="ent0034"><rect fill="#FFF2CC" height="56.2656" rx="3.5" ry="3.5" style="stroke:#833C0C;stroke-width:0.5;" width="175.6846" x="2622.33" y="673.92"/><ellipse cx="2637.33" cy="694.0528" fill="#ADD1B2" rx="11" ry="11" style="stroke:#181818;stroke-width:1;"/><path d="M2640.2988,699.6934 Q2639.7206,699.9903 2639.08,700.1309 Q2638.4394,700.2872 2637.7363,700.2872 Q2635.2363,700.2872 2633.9081,698.6466 Q2632.5956,696.9903 2632.5956,693.8653 Q2632.5956,690.7403 2633.9081,689.0841 Q2635.2363,687.4278 2637.7363,687.4278 Q2638.4394,687.4278 2639.08,687.5841 Q2639.7363,687.7403 2640.2988,688.0372 L2640.2988,690.7559 Q2639.6738,690.1778 2639.08,689.9122 Q2638.4863,689.6309 2637.8613,689.6309 Q2636.5175,689.6309 2635.83,690.7091 Q2635.1425,691.7716 2635.1425,693.8653 Q2635.1425,695.9591 2635.83,697.0372 Q2636.5175,698.0997 2637.8613,698.0997 Q2638.4863,698.0997 2639.08,697.8341 Q2639.6738,697.5528 2640.2988,696.9747 L2640.2988,699.6934 Z " fill="#000000"/><text fill="#000000" font-family="sans-serif" font-size="12" font-style="italic" lengthAdjust="spacing" textLength="31.998" x="2707.1733" y="690.0587">&#171;RN&#187;</text><text fill="#000000" font-family="sans-serif" font-size="14" lengthAdjust="spacing" textLength="143.6846" x="2651.33" y="705.8839">RNLiveViewManager</text><line style="stroke:#833C0C;stroke-width:0.5;" x1="2623.33" x2="2797.0146" y1="714.1856" y2="714.1856"/><line style="stroke:#833C0C;stroke-width:0.5;" x1="2623.33" x2="2797.0146" y1="722.1856" y2="722.1856"/></g><!--class RNLiveViewRenderer--><g class="entity" data-qualified-name="RNLiveViewRenderer" data-source-line="71" id="ent0035"><rect fill="#FFF2CC" height="56.2656" rx="3.5" ry="3.5" style="stroke:#833C0C;stroke-width:0.5;" width="179.1572" x="2089.59" y="423.39"/><ellipse cx="2104.59" cy="443.5228" fill="#ADD1B2" rx="11" ry="11" style="stroke:#181818;stroke-width:1;"/><path d="M2107.5588,449.1634 Q2106.9806,449.4603 2106.34,449.6009 Q2105.6994,449.7572 2104.9963,449.7572 Q2102.4963,449.7572 2101.1681,448.1166 Q2099.8556,446.4603 2099.8556,443.3353 Q2099.8556,440.2103 2101.1681,438.5541 Q2102.4963,436.8978 2104.9963,436.8978 Q2105.6994,436.8978 2106.34,437.0541 Q2106.9963,437.2103 2107.5588,437.5072 L2107.5588,440.2259 Q2106.9338,439.6478 2106.34,439.3822 Q2105.7463,439.1009 2105.1213,439.1009 Q2103.7775,439.1009 2103.09,440.1791 Q2102.4025,441.2416 2102.4025,443.3353 Q2102.4025,445.4291 2103.09,446.5072 Q2103.7775,447.5697 2105.1213,447.5697 Q2105.7463,447.5697 2106.34,447.3041 Q2106.9338,447.0228 2107.5588,446.4447 L2107.5588,449.1634 Z " fill="#000000"/><text fill="#000000" font-family="sans-serif" font-size="12" font-style="italic" lengthAdjust="spacing" textLength="31.998" x="2176.1696" y="439.5287">&#171;RN&#187;</text><text fill="#000000" font-family="sans-serif" font-size="14" lengthAdjust="spacing" textLength="147.1572" x="2118.59" y="455.3539">RNLiveViewRenderer</text><line style="stroke:#833C0C;stroke-width:0.5;" x1="2090.59" x2="2267.7472" y1="463.6556" y2="463.6556"/><line style="stroke:#833C0C;stroke-width:0.5;" x1="2090.59" x2="2267.7472" y1="471.6556" y2="471.6556"/></g><!--class RNRenderer--><g class="entity" data-qualified-name="RNRenderer" data-source-line="72" id="ent0036"><rect fill="#FFF2CC" height="56.2656" rx="3.5" ry="3.5" style="stroke:#833C0C;stroke-width:0.5;" width="117.0391" x="1947.65" y="556.66"/><ellipse cx="1962.65" cy="576.7928" fill="#ADD1B2" rx="11" ry="11" style="stroke:#181818;stroke-width:1;"/><path d="M1965.6188,582.4334 Q1965.0406,582.7303 1964.4,582.8709 Q1963.7594,583.0272 1963.0563,583.0272 Q1960.5563,583.0272 1959.2281,581.3866 Q1957.9156,579.7303 1957.9156,576.6053 Q1957.9156,573.4803 1959.2281,571.8241 Q1960.5563,570.1678 1963.0563,570.1678 Q1963.7594,570.1678 1964.4,570.3241 Q1965.0563,570.4803 1965.6188,570.7772 L1965.6188,573.4959 Q1964.9938,572.9178 1964.4,572.6522 Q1963.8063,572.3709 1963.1813,572.3709 Q1961.8375,572.3709 1961.15,573.4491 Q1960.4625,574.5116 1960.4625,576.6053 Q1960.4625,578.6991 1961.15,579.7772 Q1961.8375,580.8397 1963.1813,580.8397 Q1963.8063,580.8397 1964.4,580.5741 Q1964.9938,580.2928 1965.6188,579.7147 L1965.6188,582.4334 Z " fill="#000000"/><text fill="#000000" font-family="sans-serif" font-size="12" font-style="italic" lengthAdjust="spacing" textLength="31.998" x="2003.1705" y="572.7987">&#171;RN&#187;</text><text fill="#000000" font-family="sans-serif" font-size="14" lengthAdjust="spacing" textLength="85.0391" x="1976.65" y="588.6239">RNRenderer</text><line style="stroke:#833C0C;stroke-width:0.5;" x1="1948.65" x2="2063.6891" y1="596.9256" y2="596.9256"/><line style="stroke:#833C0C;stroke-width:0.5;" x1="1948.65" x2="2063.6891" y1="604.9256" y2="604.9256"/></g><!--class RNPopupSubMenuItem--><g class="entity" data-qualified-name="RNPopupSubMenuItem" data-source-line="73" id="ent0037"><rect fill="#FFF2CC" height="56.2656" rx="3.5" ry="3.5" style="stroke:#833C0C;stroke-width:0.5;" width="192.8086" x="272.76" y="673.92"/><ellipse cx="287.76" cy="694.0528" fill="#ADD1B2" rx="11" ry="11" style="stroke:#181818;stroke-width:1;"/><path d="M290.7288,699.6934 Q290.1506,699.9903 289.51,700.1309 Q288.8694,700.2872 288.1663,700.2872 Q285.6663,700.2872 284.3381,698.6466 Q283.0256,696.9903 283.0256,693.8653 Q283.0256,690.7403 284.3381,689.0841 Q285.6663,687.4278 288.1663,687.4278 Q288.8694,687.4278 289.51,687.5841 Q290.1663,687.7403 290.7288,688.0372 L290.7288,690.7559 Q290.1038,690.1778 289.51,689.9122 Q288.9163,689.6309 288.2913,689.6309 Q286.9475,689.6309 286.26,690.7091 Q285.5725,691.7716 285.5725,693.8653 Q285.5725,695.9591 286.26,697.0372 Q286.9475,698.0997 288.2913,698.0997 Q288.9163,698.0997 289.51,697.8341 Q290.1038,697.5528 290.7288,696.9747 L290.7288,699.6934 Z " fill="#000000"/><text fill="#000000" font-family="sans-serif" font-size="12" font-style="italic" lengthAdjust="spacing" textLength="31.998" x="366.1653" y="690.0587">&#171;RN&#187;</text><text fill="#000000" font-family="sans-serif" font-size="14" lengthAdjust="spacing" textLength="160.8086" x="301.76" y="705.8839">RNPopupSubMenuItem</text><line style="stroke:#833C0C;stroke-width:0.5;" x1="273.76" x2="464.5686" y1="714.1856" y2="714.1856"/><line style="stroke:#833C0C;stroke-width:0.5;" x1="273.76" x2="464.5686" y1="722.1856" y2="722.1856"/></g><!--class RNLinkMenuItem--><g class="entity" data-qualified-name="RNLinkMenuItem" data-source-line="74" id="ent0038"><rect fill="#FFF2CC" height="56.2656" rx="3.5" ry="3.5" style="stroke:#833C0C;stroke-width:0.5;" width="151.1777" x="606.58" y="423.39"/><ellipse cx="621.58" cy="443.5228" fill="#ADD1B2" rx="11" ry="11" style="stroke:#181818;stroke-width:1;"/><path d="M624.5488,449.1634 Q623.9706,449.4603 623.33,449.6009 Q622.6894,449.7572 621.9863,449.7572 Q619.4863,449.7572 618.1581,448.1166 Q616.8456,446.4603 616.8456,443.3353 Q616.8456,440.2103 618.1581,438.5541 Q619.4863,436.8978 621.9863,436.8978 Q622.6894,436.8978 623.33,437.0541 Q623.9863,437.2103 624.5488,437.5072 L624.5488,440.2259 Q623.9238,439.6478 623.33,439.3822 Q622.7363,439.1009 622.1113,439.1009 Q620.7675,439.1009 620.08,440.1791 Q619.3925,441.2416 619.3925,443.3353 Q619.3925,445.4291 620.08,446.5072 Q620.7675,447.5697 622.1113,447.5697 Q622.7363,447.5697 623.33,447.3041 Q623.9238,447.0228 624.5488,446.4447 L624.5488,449.1634 Z " fill="#000000"/><text fill="#000000" font-family="sans-serif" font-size="12" font-style="italic" lengthAdjust="spacing" textLength="31.998" x="679.1698" y="439.5287">&#171;RN&#187;</text><text fill="#000000" font-family="sans-serif" font-size="14" lengthAdjust="spacing" textLength="119.1777" x="635.58" y="455.3539">RNLinkMenuItem</text><line style="stroke:#833C0C;stroke-width:0.5;" x1="607.58" x2="756.7577" y1="463.6556" y2="463.6556"/><line style="stroke:#833C0C;stroke-width:0.5;" x1="607.58" x2="756.7577" y1="471.6556" y2="471.6556"/></g><!--class RNCheckedMenuItemCommon--><g class="entity" data-qualified-name="RNCheckedMenuItemCommon" data-source-line="75" id="ent0039"><rect fill="#FFF2CC" height="56.2656" rx="3.5" ry="3.5" style="stroke:#833C0C;stroke-width:0.5;" width="246.1289" x="1292.1" y="556.66"/><ellipse cx="1307.1" cy="576.7928" fill="#A9DCDF" rx="11" ry="11" style="stroke:#181818;stroke-width:1;"/><path d="M1307.2094,572.1366 L1306.0531,577.2147 L1308.3813,577.2147 L1307.2094,572.1366 Z M1305.725,569.9022 L1308.7094,569.9022 L1312.0688,582.2928 L1309.6156,582.2928 L1308.85,579.2303 L1305.5688,579.2303 L1304.8188,582.2928 L1302.3813,582.2928 L1305.725,569.9022 Z " fill="#000000"/><text fill="#000000" font-family="sans-serif" font-size="12" font-style="italic" lengthAdjust="spacing" textLength="31.998" x="1412.1654" y="572.7987">&#171;RN&#187;</text><text fill="#000000" font-family="sans-serif" font-size="14" font-style="italic" lengthAdjust="spacing" textLength="214.1289" x="1321.1" y="588.6239">RNCheckedMenuItemCommon</text><line style="stroke:#833C0C;stroke-width:0.5;" x1="1293.1" x2="1537.2289" y1="596.9256" y2="596.9256"/><line style="stroke:#833C0C;stroke-width:0.5;" x1="1293.1" x2="1537.2289" y1="604.9256" y2="604.9256"/></g><!--class RNCheckedMenuItem--><g class="entity" data-qualified-name="RNCheckedMenuItem" data-source-line="76" id="ent0040"><rect fill="#FFF2CC" height="56.2656" rx="3.5" ry="3.5" style="stroke:#833C0C;stroke-width:0.5;" width="183.0742" x="1682.63" y="673.92"/><ellipse cx="1697.63" cy="694.0528" fill="#ADD1B2" rx="11" ry="11" style="stroke:#181818;stroke-width:1;"/><path d="M1700.5988,699.6934 Q1700.0206,699.9903 1699.38,700.1309 Q1698.7394,700.2872 1698.0363,700.2872 Q1695.5363,700.2872 1694.2081,698.6466 Q1692.8956,696.9903 1692.8956,693.8653 Q1692.8956,690.7403 1694.2081,689.0841 Q1695.5363,687.4278 1698.0363,687.4278 Q1698.7394,687.4278 1699.38,687.5841 Q1700.0363,687.7403 1700.5988,688.0372 L1700.5988,690.7559 Q1699.9738,690.1778 1699.38,689.9122 Q1698.7863,689.6309 1698.1613,689.6309 Q1696.8175,689.6309 1696.13,690.7091 Q1695.4425,691.7716 1695.4425,693.8653 Q1695.4425,695.9591 1696.13,697.0372 Q1696.8175,698.0997 1698.1613,698.0997 Q1698.7863,698.0997 1699.38,697.8341 Q1699.9738,697.5528 1700.5988,696.9747 L1700.5988,699.6934 Z " fill="#000000"/><text fill="#000000" font-family="sans-serif" font-size="12" font-style="italic" lengthAdjust="spacing" textLength="31.998" x="1771.1681" y="690.0587">&#171;RN&#187;</text><text fill="#000000" font-family="sans-serif" font-size="14" lengthAdjust="spacing" textLength="151.0742" x="1711.63" y="705.8839">RNCheckedMenuItem</text><line style="stroke:#833C0C;stroke-width:0.5;" x1="1683.63" x2="1864.7042" y1="714.1856" y2="714.1856"/><line style="stroke:#833C0C;stroke-width:0.5;" x1="1683.63" x2="1864.7042" y1="722.1856" y2="722.1856"/></g><!--class RNMatchMenuItem--><g class="entity" data-qualified-name="RNMatchMenuItem" data-source-line="77" id="ent0041"><rect fill="#FFF2CC" height="56.2656" rx="3.5" ry="3.5" style="stroke:#833C0C;stroke-width:0.5;" width="165.2256" x="1252.56" y="673.92"/><ellipse cx="1267.56" cy="694.0528" fill="#ADD1B2" rx="11" ry="11" style="stroke:#181818;stroke-width:1;"/><path d="M1270.5288,699.6934 Q1269.9506,699.9903 1269.31,700.1309 Q1268.6694,700.2872 1267.9663,700.2872 Q1265.4663,700.2872 1264.1381,698.6466 Q1262.8256,696.9903 1262.8256,693.8653 Q1262.8256,690.7403 1264.1381,689.0841 Q1265.4663,687.4278 1267.9663,687.4278 Q1268.6694,687.4278 1269.31,687.5841 Q1269.9663,687.7403 1270.5288,688.0372 L1270.5288,690.7559 Q1269.9038,690.1778 1269.31,689.9122 Q1268.7163,689.6309 1268.0913,689.6309 Q1266.7475,689.6309 1266.06,690.7091 Q1265.3725,691.7716 1265.3725,693.8653 Q1265.3725,695.9591 1266.06,697.0372 Q1266.7475,698.0997 1268.0913,698.0997 Q1268.7163,698.0997 1269.31,697.8341 Q1269.9038,697.5528 1270.5288,696.9747 L1270.5288,699.6934 Z " fill="#000000"/><text fill="#000000" font-family="sans-serif" font-size="12" font-style="italic" lengthAdjust="spacing" textLength="31.998" x="1332.1738" y="690.0587">&#171;RN&#187;</text><text fill="#000000" font-family="sans-serif" font-size="14" lengthAdjust="spacing" textLength="133.2256" x="1281.56" y="705.8839">RNMatchMenuItem</text><line style="stroke:#833C0C;stroke-width:0.5;" x1="1253.56" x2="1416.7856" y1="714.1856" y2="714.1856"/><line style="stroke:#833C0C;stroke-width:0.5;" x1="1253.56" x2="1416.7856" y1="722.1856" y2="722.1856"/></g><!--reverse link Runner to MenuRendererCommon--><g class="link" data-entity-1="ent0002" data-entity-2="ent0003" data-link-type="extension" data-source-line="79" id="lnk42"><path codeLine="79" d="M1096.17,77.35 C1096.17,96.76 1096.17,106.63 1096.17,128.05" fill="none" id="Runner-backto-MenuRendererCommon" style="stroke:#454645;stroke-width:1;"/><polygon fill="none" points="1096.17,59.35,1090.17,77.35,1102.17,77.35,1096.17,59.35" style="stroke:#454645;stroke-width:1;"/></g><!--reverse link MenuRendererCommon to GnomeRunner--><g class="link" data-entity-1="ent0003" data-entity-2="ent0015" data-link-type="extension" data-source-line="80" id="lnk43"><path codeLine="80" d="M1230.509,171.4038 C1446.749,187.7138 1907.01,224.79 2308.17,273.83 C2363.87,280.64 2426.8,290.34 2473.05,297.84" fill="none" id="MenuRendererCommon-backto-GnomeRunner" style="stroke:#454645;stroke-width:1;"/><polygon fill="none" points="1212.56,170.05,1230.0577,177.3868,1230.9603,165.4208,1212.56,170.05" style="stroke:#454645;stroke-width:1;"/></g><!--reverse link MenuRendererCommon to AppMenuRenderer--><g class="link" data-entity-1="ent0003" data-entity-2="ent0004" data-link-type="extension" data-source-line="81" id="lnk44"><path codeLine="81" d="M1204.5228,198.9891 C1284.8828,226.7591 1383.02,260.68 1455.41,285.7" fill="none" id="MenuRendererCommon-backto-AppMenuRenderer" style="stroke:#454645;stroke-width:1;"/><polygon fill="none" points="1187.51,193.11,1202.5631,204.6601,1206.4825,193.3182,1187.51,193.11" style="stroke:#454645;stroke-width:1;"/></g><!--reverse link AppMenuRenderer to MenuRenderer--><g class="link" data-entity-1="ent0004" data-entity-2="ent0024" data-link-type="extension" data-source-line="82" id="lnk45"><path codeLine="82" d="M1523.17,352.45 C1523.17,376.94 1523.17,397.42 1523.17,423.29" fill="none" id="AppMenuRenderer-backto-MenuRenderer" style="stroke:#454645;stroke-width:1;"/><polygon fill="none" points="1523.17,334.45,1517.17,352.45,1529.17,352.45,1523.17,334.45" style="stroke:#454645;stroke-width:1;"/></g><!--reverse link AppMenuRenderer to RNRunner--><g class="link" data-entity-1="ent0004" data-entity-2="ent0033" data-link-type="extension" data-source-line="83" id="lnk46"><path codeLine="83" d="M1598.5188,341.2946 C1665.0588,367.9546 1755.85,404.33 1819.4,429.79" fill="none" id="AppMenuRenderer-backto-RNRunner" style="stroke:#454645;stroke-width:1;"/><polygon fill="none" points="1581.81,334.6,1596.2872,346.8641,1600.7503,335.725,1581.81,334.6" style="stroke:#454645;stroke-width:1;"/></g><!--reverse link MenuHandler to LiveScoreButton--><g class="link" data-entity-1="ent0014" data-entity-2="ent0016" data-link-type="extension" data-source-line="84" id="lnk47"><path codeLine="84" d="M2659.9293,74.5181 C2682.9393,92.2781 2698.91,104.59 2723.82,123.8" fill="none" id="MenuHandler-backto-LiveScoreButton" style="stroke:#454645;stroke-width:1;stroke-dasharray:7,7;"/><polygon fill="none" points="2645.68,63.52,2656.2632,79.2679,2663.5953,69.7684,2645.68,63.52" style="stroke:#454645;stroke-width:1;"/></g><!--reverse link MenuHandler to GnomeRunner--><g class="link" data-entity-1="ent0014" data-entity-2="ent0015" data-link-type="composition" data-source-line="85" id="lnk48"><path codeLine="85" d="M2597.6499,74.8246 C2592.1299,92.1646 2588.7,103.72 2583.17,124.27 C2568.23,179.79 2553.68,245.5 2545.93,281.72" fill="none" id="MenuHandler-backto-GnomeRunner" style="stroke:#454645;stroke-width:1;"/><polygon fill="#454645" points="2601.29,63.39,2595.6584,67.8939,2597.6499,74.8246,2603.2815,70.3207,2601.29,63.39" style="stroke:#454645;stroke-width:1;"/><text fill="#000000" font-family="sans-serif" font-size="13" lengthAdjust="spacing" textLength="70.1035" x="2584.17" y="165.1169">_extension</text></g><!--reverse link LiveScoreButton to LiveScoreExtension--><g class="link" data-entity-1="ent0016" data-entity-2="ent0017" data-link-type="composition" data-source-line="86" id="lnk49"><path codeLine="86" d="M2772.4303,209.2564 C2773.5303,232.3764 2774.38,250.36 2775.48,273.46" fill="none" id="LiveScoreButton-backto-LiveScoreExtension" style="stroke:#454645;stroke-width:1;"/><polygon fill="#454645" points="2771.86,197.27,2768.1497,203.4533,2772.4303,209.2564,2776.1406,203.0731,2771.86,197.27" style="stroke:#454645;stroke-width:1;"/><text fill="#000000" font-family="sans-serif" font-size="13" lengthAdjust="spacing" textLength="86.1123" x="2774.17" y="239.8969">_panelButton</text></g><!--link LiveScoreExtension to LiveViewUpdater--><g class="link" data-entity-1="ent0017" data-entity-2="ent0006" data-link-type="dependency" data-source-line="87" id="lnk50"><path codeLine="87" d="M2810.31,346.65 C2833.93,371.98 2860.9187,400.9213 2881.4187,422.9113" fill="none" id="LiveScoreExtension-to-LiveViewUpdater" style="stroke:#454645;stroke-width:1;"/><polygon fill="#454645" points="2885.51,427.3,2882.2988,417.9894,2882.1005,423.6427,2876.4472,423.4445,2885.51,427.3" style="stroke:#454645;stroke-width:1;"/><text fill="#000000" font-family="sans-serif" font-size="13" lengthAdjust="spacing" textLength="57.6494" x="2854.17" y="389.4569">_updater</text></g><!--reverse link LiveScoreExtension to FloatingScoreWindow--><g class="link" data-entity-1="ent0017" data-entity-2="ent0019" data-link-type="composition" data-source-line="88" id="lnk51"><path codeLine="88" d="M2681.0814,345.3626 C2650.4214,356.3326 2626.86,364.84 2595.17,376.39 C2553.25,391.68 2506.48,409 2468.71,423.05" fill="none" id="LiveScoreExtension-backto-FloatingScoreWindow" style="stroke:#454645;stroke-width:1;"/><polygon fill="#454645" points="2692.38,341.32,2685.3832,339.5751,2681.0814,345.3626,2688.0782,347.1075,2692.38,341.32" style="stroke:#454645;stroke-width:1;"/><text fill="#000000" font-family="sans-serif" font-size="13" lengthAdjust="spacing" textLength="156.5396" x="2596.17" y="389.4569">_activeFloatingWindows</text></g><!--link LiveViewUpdater to LiveViewManager--><g class="link" data-entity-1="ent0006" data-entity-2="ent0005" data-link-type="dependency" data-source-line="89" id="lnk52"><path codeLine="89" d="M2892.51,475.99 C2877.58,499.89 2857.7588,531.6213 2842.8788,555.4413" fill="none" id="LiveViewUpdater-to-LiveViewManager" style="stroke:#454645;stroke-width:1;"/><polygon fill="#454645" points="2839.7,560.53,2847.8607,555.0162,2842.349,556.2894,2841.0758,550.7777,2839.7,560.53" style="stroke:#454645;stroke-width:1;"/><text fill="#000000" font-family="sans-serif" font-size="13" lengthAdjust="spacing" textLength="64.9302" x="2871.17" y="522.7269">_manager</text></g><!--reverse link MenuRendererCommon to MenuItem--><g class="link" data-entity-1="ent0003" data-entity-2="ent0010" data-link-type="composition" data-source-line="91" id="lnk53"><path codeLine="91" d="M967.9234,174.6844 C907.6734,183.7444 846.05,198.13 785.17,226.83 C754.32,241.37 724.49,266.86 704.94,285.63" fill="none" id="MenuRendererCommon-backto-MenuItem" style="stroke:#454645;stroke-width:1;"/><polygon fill="#454645" points="979.79,172.9,973.2619,169.8367,967.9234,174.6844,974.4515,177.7477,979.79,172.9" style="stroke:#454645;stroke-width:1;"/></g><!--reverse link MenuRendererCommon to CheckedMenuItem--><g class="link" data-entity-1="ent0003" data-entity-2="ent0011" data-link-type="composition" data-source-line="92" id="lnk54"><path codeLine="92" d="M1074.1638,203.6562 C1043.5938,262.1762 984.22,375.79 957.28,427.35" fill="none" id="MenuRendererCommon-backto-CheckedMenuItem" style="stroke:#454645;stroke-width:1;"/><polygon fill="#454645" points="1079.72,193.02,1073.3965,196.486,1074.1638,203.6562,1080.4873,200.1902,1079.72,193.02" style="stroke:#454645;stroke-width:1;"/></g><!--reverse link MenuRendererCommon to MatchMenuItem--><g class="link" data-entity-1="ent0003" data-entity-2="ent0012" data-link-type="composition" data-source-line="93" id="lnk55"><path codeLine="93" d="M1105.1584,204.6876 C1122.0484,285.7276 1164.38,488.84 1179.27,560.3" fill="none" id="MenuRendererCommon-backto-MatchMenuItem" style="stroke:#454645;stroke-width:1;"/><polygon fill="#454645" points="1102.71,192.94,1100.0183,199.6299,1105.1584,204.6876,1107.85,197.9977,1102.71,192.94" style="stroke:#454645;stroke-width:1;"/></g><!--reverse link MenuRendererCommon to PopupSubMenuItem--><g class="link" data-entity-1="ent0003" data-entity-2="ent0009" data-link-type="composition" data-source-line="94" id="lnk56"><path codeLine="94" d="M1057.7801,201.7367 C984.7001,278.0467 809.61,459.28 775.17,479.66 C752.03,493.35 606.45,534.24 509.9,560.52" fill="none" id="MenuRendererCommon-backto-PopupSubMenuItem" style="stroke:#454645;stroke-width:1;"/><polygon fill="#454645" points="1066.08,193.07,1059.0412,194.6367,1057.7801,201.7367,1064.819,200.17,1066.08,193.07" style="stroke:#454645;stroke-width:1;"/></g><!--reverse link LiveViewManager to LiveScoreExtension--><g class="link" data-entity-1="ent0005" data-entity-2="ent0017" data-link-type="extension" data-source-line="96" id="lnk57"><path codeLine="96" d="M2817.9501,542.7924 C2809.5501,495.0624 2793.43,403.49 2783.44,346.76" fill="none" id="LiveViewManager-backto-LiveScoreExtension" style="stroke:#454645;stroke-width:1;stroke-dasharray:7,7;"/><polygon fill="none" points="2821.07,560.52,2823.8593,541.7525,2812.0409,543.8324,2821.07,560.52" style="stroke:#454645;stroke-width:1;"/></g><!--reverse link LiveViewManager to RNLiveViewManager--><g class="link" data-entity-1="ent0005" data-entity-2="ent0034" data-link-type="extension" data-source-line="97" id="lnk58"><path codeLine="97" d="M2789.1857,621.8616 C2770.5457,640.5416 2757.07,654.04 2737.45,673.71" fill="none" id="LiveViewManager-backto-RNLiveViewManager" style="stroke:#454645;stroke-width:1;stroke-dasharray:7,7;"/><polygon fill="none" points="2801.9,609.12,2784.9385,617.6235,2793.4329,626.0996,2801.9,609.12" style="stroke:#454645;stroke-width:1;"/></g><!--reverse link LiveViewManager to ElectronLiveViewManager--><g class="link" data-entity-1="ent0005" data-entity-2="ent0025" data-link-type="extension" data-source-line="98" id="lnk59"><path codeLine="98" d="M2860.8992,621.9162 C2879.3792,640.5962 2892.67,654.04 2912.13,673.71" fill="none" id="LiveViewManager-backto-ElectronLiveViewManager" style="stroke:#454645;stroke-width:1;stroke-dasharray:7,7;"/><polygon fill="none" points="2848.24,609.12,2856.6338,626.136,2865.1646,617.6965,2848.24,609.12" style="stroke:#454645;stroke-width:1;"/></g><!--reverse link Renderer to RNRenderer--><g class="link" data-entity-1="ent0007" data-entity-2="ent0036" data-link-type="extension" data-source-line="100" id="lnk60"><path codeLine="100" d="M2006.17,493.99 C2006.17,516.56 2006.17,532.66 2006.17,556.44" fill="none" id="Renderer-backto-RNRenderer" style="stroke:#454645;stroke-width:1;"/><polygon fill="none" points="2006.17,475.99,2000.17,493.99,2012.17,493.99,2006.17,475.99" style="stroke:#454645;stroke-width:1;"/></g><!--reverse link Renderer to ElectronRenderer--><g class="link" data-entity-1="ent0007" data-entity-2="ent0027" data-link-type="extension" data-source-line="101" id="lnk61"><path codeLine="101" d="M1941.1507,482.4699 C1892.3407,504.9499 1833.45,532.08 1781.02,556.23" fill="none" id="Renderer-backto-ElectronRenderer" style="stroke:#454645;stroke-width:1;"/><polygon fill="none" points="1957.5,474.94,1938.6407,477.0201,1943.6606,487.9197,1957.5,474.94" style="stroke:#454645;stroke-width:1;"/></g><!--reverse link Renderer to GnomeRenderer--><g class="link" data-entity-1="ent0007" data-entity-2="ent0018" data-link-type="extension" data-source-line="102" id="lnk62"><path codeLine="102" d="M2071.7625,479.7197 C2077.5125,481.9897 2066.58,477.61 2072.17,479.66 C2156.68,510.6 2255.34,541.69 2321.17,561.74" fill="none" id="Renderer-backto-GnomeRenderer" style="stroke:#454645;stroke-width:1;"/><polygon fill="none" points="2055.02,473.11,2069.5593,485.3005,2073.9658,474.1388,2055.02,473.11" style="stroke:#454645;stroke-width:1;"/></g><!--reverse link LiveViewRendererCommon to RNLiveViewRenderer--><g class="link" data-entity-1="ent0008" data-entity-2="ent0035" data-link-type="extension" data-source-line="104" id="lnk63"><path codeLine="104" d="M2179.17,352.45 C2179.17,376.94 2179.17,397.42 2179.17,423.29" fill="none" id="LiveViewRendererCommon-backto-RNLiveViewRenderer" style="stroke:#454645;stroke-width:1;"/><polygon fill="none" points="2179.17,334.45,2173.17,352.45,2185.17,352.45,2179.17,334.45" style="stroke:#454645;stroke-width:1;"/></g><!--reverse link LiveViewRendererCommon to LiveViewRenderer--><g class="link" data-entity-1="ent0008" data-entity-2="ent0026" data-link-type="extension" data-source-line="105" id="lnk64"><path codeLine="105" d="M2082.0316,339.6796 C1994.5616,365.4096 1872.41,401.34 1784.97,427.05" fill="none" id="LiveViewRendererCommon-backto-LiveViewRenderer" style="stroke:#454645;stroke-width:1;"/><polygon fill="none" points="2099.3,334.6,2080.3384,333.9235,2083.7248,345.4358,2099.3,334.6" style="stroke:#454645;stroke-width:1;"/></g><!--reverse link LiveViewRendererCommon to FloatingScoreWindow--><g class="link" data-entity-1="ent0008" data-entity-2="ent0019" data-link-type="extension" data-source-line="106" id="lnk65"><path codeLine="106" d="M2230.4447,344.2093 C2268.2747,368.6193 2312.51,397.17 2352.58,423.04" fill="none" id="LiveViewRendererCommon-backto-FloatingScoreWindow" style="stroke:#454645;stroke-width:1;"/><polygon fill="none" points="2215.32,334.45,2227.1916,349.2508,2233.6978,339.1677,2215.32,334.45" style="stroke:#454645;stroke-width:1;"/></g><!--reverse link MenuItem to CheckedMenuItem--><g class="link" data-entity-1="ent0010" data-entity-2="ent0011" data-link-type="extension" data-source-line="108" id="lnk66"><path codeLine="108" d="M742.3927,343.0324 C790.9927,368.8024 852.61,401.46 901.11,427.17" fill="none" id="MenuItem-backto-CheckedMenuItem" style="stroke:#454645;stroke-width:1;"/><polygon fill="none" points="726.49,334.6,739.5819,348.3332,745.2035,337.7315,726.49,334.6" style="stroke:#454645;stroke-width:1;"/></g><!--reverse link MenuItem to GnomeLinkMenuItem--><g class="link" data-entity-1="ent0010" data-entity-2="ent0021" data-link-type="extension" data-source-line="109" id="lnk67"><path codeLine="109" d="M613.7965,333.5399 C541.9365,357.1099 427.5,394.65 341.2,422.96" fill="none" id="MenuItem-backto-GnomeLinkMenuItem" style="stroke:#454645;stroke-width:1;stroke-dasharray:7,7;"/><polygon fill="none" points="630.9,327.93,611.9266,327.8388,615.6665,339.2411,630.9,327.93" style="stroke:#454645;stroke-width:1;"/></g><!--reverse link MenuItem to RNLinkMenuItem--><g class="link" data-entity-1="ent0010" data-entity-2="ent0038" data-link-type="extension" data-source-line="110" id="lnk68"><path codeLine="110" d="M682.17,352.45 C682.17,376.94 682.17,397.42 682.17,423.29" fill="none" id="MenuItem-backto-RNLinkMenuItem" style="stroke:#454645;stroke-width:1;stroke-dasharray:7,7;"/><polygon fill="none" points="682.17,334.45,676.17,352.45,688.17,352.45,682.17,334.45" style="stroke:#454645;stroke-width:1;"/></g><!--reverse link MenuItem to ElectronLinkMenuItem--><g class="link" data-entity-1="ent0010" data-entity-2="ent0029" data-link-type="extension" data-source-line="111" id="lnk69"><path codeLine="111" d="M632.9736,344.5691 C597.0636,368.9791 555.62,397.17 517.59,423.04" fill="none" id="MenuItem-backto-ElectronLinkMenuItem" style="stroke:#454645;stroke-width:1;stroke-dasharray:7,7;"/><polygon fill="none" points="647.86,334.45,629.6006,339.607,636.3467,349.5312,647.86,334.45" style="stroke:#454645;stroke-width:1;"/></g><!--reverse link CheckedMenuItem to GnomeCheckedMenuItem--><g class="link" data-entity-1="ent0011" data-entity-2="ent0022" data-link-type="extension" data-source-line="113" id="lnk70"><path codeLine="113" d="M916.0796,489.7719 C902.4196,506.2919 893.58,513.82 871.17,526.66 C860.58,532.73 808.82,546.28 758.16,558.66" fill="none" id="CheckedMenuItem-backto-GnomeCheckedMenuItem" style="stroke:#454645;stroke-width:1;stroke-dasharray:7,7;"/><polygon fill="none" points="927.55,475.9,911.4556,485.9485,920.7036,493.5954,927.55,475.9" style="stroke:#454645;stroke-width:1;"/></g><!--reverse link CheckedMenuItem to MatchMenuItem--><g class="link" data-entity-1="ent0011" data-entity-2="ent0012" data-link-type="extension" data-source-line="114" id="lnk71"><path codeLine="114" d="M1003.677,484.6552 C1047.047,508.4752 1098.03,536.48 1141.41,560.31" fill="none" id="CheckedMenuItem-backto-MatchMenuItem" style="stroke:#454645;stroke-width:1;"/><polygon fill="none" points="987.9,475.99,1000.7886,489.9142,1006.5654,479.3962,987.9,475.99" style="stroke:#454645;stroke-width:1;"/></g><!--reverse link CheckedMenuItem to PopupSubMenuItem--><g class="link" data-entity-1="ent0011" data-entity-2="ent0009" data-link-type="extension" data-source-line="115" id="lnk72"><path codeLine="115" d="M903.1823,486.8889 C881.0423,504.0789 862.69,515.31 830.17,526.66 C702.4,571.23 660.38,532.84 527.17,556.66 C521.2,557.73 515.07,558.96 508.92,560.3" fill="none" id="CheckedMenuItem-backto-PopupSubMenuItem" style="stroke:#454645;stroke-width:1;stroke-dasharray:7,7;"/><polygon fill="none" points="917.4,475.85,899.5027,482.1497,906.862,491.6281,917.4,475.85" style="stroke:#454645;stroke-width:1;"/></g><!--reverse link CheckedMenuItem to ElectronCheckedMenuItemCommon--><g class="link" data-entity-1="ent0011" data-entity-2="ent0030" data-link-type="extension" data-source-line="116" id="lnk73"><path codeLine="116" d="M942.0122,493.938 C940.2922,516.508 939.06,532.66 937.25,556.44" fill="none" id="CheckedMenuItem-backto-ElectronCheckedMenuItemCommon" style="stroke:#454645;stroke-width:1;stroke-dasharray:7,7;"/><polygon fill="none" points="943.38,475.99,936.0296,493.482,947.9949,494.3939,943.38,475.99" style="stroke:#454645;stroke-width:1;"/></g><!--reverse link CheckedMenuItem to RNCheckedMenuItemCommon--><g class="link" data-entity-1="ent0011" data-entity-2="ent0039" data-link-type="extension" data-source-line="117" id="lnk74"><path codeLine="117" d="M1044.3764,480.2325 C1124.8564,502.7125 1230.44,532.2 1316.32,556.18" fill="none" id="CheckedMenuItem-backto-RNCheckedMenuItemCommon" style="stroke:#454645;stroke-width:1;stroke-dasharray:7,7;"/><polygon fill="none" points="1027.04,475.39,1042.7622,486.0113,1045.9905,474.4537,1027.04,475.39" style="stroke:#454645;stroke-width:1;"/></g><!--reverse link PopupSubMenuItem to GnomePopupSubMenuItem--><g class="link" data-entity-1="ent0009" data-entity-2="ent0020" data-link-type="extension" data-source-line="119" id="lnk75"><path codeLine="119" d="M476.7883,618.491 C507.3083,637.101 534.78,653.86 566.99,673.51" fill="none" id="PopupSubMenuItem-backto-GnomePopupSubMenuItem" style="stroke:#454645;stroke-width:1;stroke-dasharray:7,7;"/><polygon fill="none" points="461.42,609.12,473.6646,623.6138,479.912,613.3683,461.42,609.12" style="stroke:#454645;stroke-width:1;"/></g><!--reverse link PopupSubMenuItem to RNPopupSubMenuItem--><g class="link" data-entity-1="ent0009" data-entity-2="ent0037" data-link-type="extension" data-source-line="120" id="lnk76"><path codeLine="120" d="M404.6047,625.4204 C395.8547,644.1004 391.19,654.04 381.98,673.71" fill="none" id="PopupSubMenuItem-backto-RNPopupSubMenuItem" style="stroke:#454645;stroke-width:1;stroke-dasharray:7,7;"/><polygon fill="none" points="412.24,609.12,399.1712,622.8752,410.0381,627.9655,412.24,609.12" style="stroke:#454645;stroke-width:1;"/></g><!--reverse link PopupSubMenuItem to ElectronPopupSubMenuItem--><g class="link" data-entity-1="ent0009" data-entity-2="ent0028" data-link-type="extension" data-source-line="121" id="lnk77"><path codeLine="121" d="M345.0802,615.6966 C296.5302,634.2866 245.38,653.87 194.22,673.47" fill="none" id="PopupSubMenuItem-backto-ElectronPopupSubMenuItem" style="stroke:#454645;stroke-width:1;stroke-dasharray:7,7;"/><polygon fill="none" points="361.89,609.26,342.9346,610.0933,347.2257,621.2998,361.89,609.26" style="stroke:#454645;stroke-width:1;"/></g><!--reverse link MatchMenuItemRenderer to GnomeMatchMenuItem--><g class="link" data-entity-1="ent0013" data-entity-2="ent0023" data-link-type="extension" data-source-line="123" id="lnk78"><path codeLine="123" d="M1410.4828,481.6021 C1473.3828,502.2421 1537.21,527.81 1556.17,556.66 C1579.18,591.67 1569.62,642.45 1560.19,673.53" fill="none" id="MatchMenuItemRenderer-backto-GnomeMatchMenuItem" style="stroke:#454645;stroke-width:1;"/><polygon fill="none" points="1393.38,475.99,1408.6121,487.303,1412.3535,475.9012,1393.38,475.99" style="stroke:#454645;stroke-width:1;"/></g><!--reverse link MatchMenuItemRenderer to RNCheckedMenuItemCommon--><g class="link" data-entity-1="ent0013" data-entity-2="ent0039" data-link-type="extension" data-source-line="124" id="lnk79"><path codeLine="124" d="M1343.9563,490.3097 C1361.1463,512.8797 1376.21,532.66 1394.33,556.44" fill="none" id="MatchMenuItemRenderer-backto-RNCheckedMenuItemCommon" style="stroke:#454645;stroke-width:1;"/><polygon fill="none" points="1333.05,475.99,1339.1831,493.9451,1348.7295,486.6742,1333.05,475.99" style="stroke:#454645;stroke-width:1;"/></g><!--reverse link MatchMenuItemRenderer to ElectronCheckedMenuItemCommon--><g class="link" data-entity-1="ent0013" data-entity-2="ent0030" data-link-type="extension" data-source-line="125" id="lnk80"><path codeLine="125" d="M1230.2172,481.8691 C1165.1072,504.3691 1083.84,532.43 1015.02,556.21" fill="none" id="MatchMenuItemRenderer-backto-ElectronCheckedMenuItemCommon" style="stroke:#454645;stroke-width:1;"/><polygon fill="none" points="1247.23,475.99,1228.2575,476.1982,1232.1769,487.54,1247.23,475.99" style="stroke:#454645;stroke-width:1;"/></g><!--reverse link MatchMenuItem to GnomeMatchMenuItem--><g class="link" data-entity-1="ent0012" data-entity-2="ent0023" data-link-type="extension" data-source-line="127" id="lnk81"><path codeLine="127" d="M1274.0882,614.1086 C1333.2882,632.7586 1399.87,653.72 1462.72,673.52" fill="none" id="MatchMenuItem-backto-GnomeMatchMenuItem" style="stroke:#454645;stroke-width:1;stroke-dasharray:7,7;"/><polygon fill="none" points="1256.92,608.7,1272.2854,619.8313,1275.8911,608.3858,1256.92,608.7" style="stroke:#454645;stroke-width:1;"/></g><!--reverse link MatchMenuItem to RNMatchMenuItem--><g class="link" data-entity-1="ent0012" data-entity-2="ent0041" data-link-type="extension" data-source-line="128" id="lnk82"><path codeLine="128" d="M1229.0379,620.0417 C1253.4179,638.6517 1273.34,653.86 1299.08,673.51" fill="none" id="MatchMenuItem-backto-RNMatchMenuItem" style="stroke:#454645;stroke-width:1;stroke-dasharray:7,7;"/><polygon fill="none" points="1214.73,609.12,1225.3974,624.811,1232.6785,615.2724,1214.73,609.12" style="stroke:#454645;stroke-width:1;"/></g><!--reverse link MatchMenuItem to ElectronMatchMenuItem--><g class="link" data-entity-1="ent0012" data-entity-2="ent0032" data-link-type="extension" data-source-line="129" id="lnk83"><path codeLine="129" d="M1161.2641,624.6233 C1150.2441,643.3033 1143.9,654.04 1132.3,673.71" fill="none" id="MatchMenuItem-backto-ElectronMatchMenuItem" style="stroke:#454645;stroke-width:1;stroke-dasharray:7,7;"/><polygon fill="none" points="1170.41,609.12,1156.0963,621.5746,1166.4318,627.6719,1170.41,609.12" style="stroke:#454645;stroke-width:1;"/></g><!--reverse link RNCheckedMenuItemCommon to RNCheckedMenuItem--><g class="link" data-entity-1="ent0039" data-entity-2="ent0040" data-link-type="extension" data-source-line="131" id="lnk84"><path codeLine="131" d="M1518.2985,618.902 C1574.9285,637.082 1631.65,655.3 1688.26,673.47" fill="none" id="RNCheckedMenuItemCommon-backto-RNCheckedMenuItem" style="stroke:#454645;stroke-width:1;"/><polygon fill="none" points="1501.16,613.4,1516.4645,624.6148,1520.1325,613.1892,1501.16,613.4" style="stroke:#454645;stroke-width:1;"/></g><!--reverse link RNCheckedMenuItemCommon to RNMatchMenuItem--><g class="link" data-entity-1="ent0039" data-entity-2="ent0041" data-link-type="extension" data-source-line="132" id="lnk85"><path codeLine="132" d="M1385.7448,628.186 C1373.0748,646.436 1366.81,655.47 1354.17,673.67" fill="none" id="RNCheckedMenuItemCommon-backto-RNMatchMenuItem" style="stroke:#454645;stroke-width:1;"/><polygon fill="none" points="1396.01,613.4,1380.8162,624.7643,1390.6735,631.6077,1396.01,613.4" style="stroke:#454645;stroke-width:1;"/></g><!--reverse link ElectronCheckedMenuItemCommon to ElectronCheckedMenuItem--><g class="link" data-entity-1="ent0030" data-entity-2="ent0031" data-link-type="extension" data-source-line="134" id="lnk86"><path codeLine="134" d="M910.4157,629.0205 C899.9657,647.2705 895.27,655.47 884.85,673.67" fill="none" id="ElectronCheckedMenuItemCommon-backto-ElectronCheckedMenuItem" style="stroke:#454645;stroke-width:1;"/><polygon fill="none" points="919.36,613.4,905.2089,626.039,915.6225,632.0019,919.36,613.4" style="stroke:#454645;stroke-width:1;"/></g><!--reverse link ElectronCheckedMenuItemCommon to ElectronMatchMenuItem--><g class="link" data-entity-1="ent0030" data-entity-2="ent0032" data-link-type="extension" data-source-line="135" id="lnk87"><path codeLine="135" d="M993.7031,623.0682 C1022.2531,641.2482 1044.31,655.3 1072.86,673.47" fill="none" id="ElectronCheckedMenuItemCommon-backto-ElectronMatchMenuItem" style="stroke:#454645;stroke-width:1;"/><polygon fill="none" points="978.52,613.4,990.4803,628.1293,996.9258,618.0072,978.52,613.4" style="stroke:#454645;stroke-width:1;"/></g><!--link GnomeRunner to GnomeRenderer--><g class="link" data-entity-1="ent0015" data-entity-2="ent0018" data-link-type="dependency" data-source-line="137" id="lnk88"><path codeLine="137" d="M2539.23,338.52 C2536.98,373.38 2529.41,434.46 2504.17,479.66 C2487.07,510.28 2462.7131,533.6443 2438.8931,552.5143" fill="none" id="GnomeRunner-to-GnomeRenderer" style="stroke:#454645;stroke-width:1;"/><polygon fill="#454645" points="2434.19,556.24,2443.7284,553.7868,2438.1092,553.1352,2438.7608,547.516,2434.19,556.24" style="stroke:#454645;stroke-width:1;"/></g><!--link FloatingScoreWindow to GnomeRenderer--><g class="link" data-entity-1="ent0019" data-entity-2="ent0018" data-link-type="dependency" data-source-line="138" id="lnk89"><path codeLine="138" d="M2395.17,480.04 C2395.17,502.45 2395.17,527.92 2395.17,550.31" fill="none" id="FloatingScoreWindow-to-GnomeRenderer" style="stroke:#454645;stroke-width:1;"/><polygon fill="#454645" points="2395.17,556.31,2399.17,547.31,2395.17,551.31,2391.17,547.31,2395.17,556.31" style="stroke:#454645;stroke-width:1;"/></g><!--link RNRunner to RNRenderer--><g class="link" data-entity-1="ent0033" data-entity-2="ent0036" data-link-type="dependency" data-source-line="139" id="lnk90"><path codeLine="139" d="M1899.47,480.04 C1922.51,502.45 1950.578,529.7376 1973.608,552.1276" fill="none" id="RNRunner-to-RNRenderer" style="stroke:#454645;stroke-width:1;"/><polygon fill="#454645" points="1977.91,556.31,1974.2453,547.1683,1974.325,552.8246,1968.6687,552.9043,1977.91,556.31" style="stroke:#454645;stroke-width:1;"/></g><!--link RNLiveViewRenderer to RNRenderer--><g class="link" data-entity-1="ent0035" data-entity-2="ent0036" data-link-type="dependency" data-source-line="140" id="lnk91"><path codeLine="140" d="M2142.9,480.04 C2113.38,502.45 2076.6799,530.2934 2047.1699,552.6834" fill="none" id="RNLiveViewRenderer-to-RNRenderer" style="stroke:#454645;stroke-width:1;"/><polygon fill="#454645" points="2042.39,556.31,2051.9776,554.0566,2046.3733,553.2878,2047.1421,547.6834,2042.39,556.31" style="stroke:#454645;stroke-width:1;"/></g><!--link MenuRenderer to ElectronRenderer--><g class="link" data-entity-1="ent0024" data-entity-2="ent0027" data-link-type="dependency" data-source-line="141" id="lnk92"><path codeLine="141" d="M1569.97,480.05 C1585.17,489.23 1602.02,499.68 1617.17,509.66 C1639.76,524.54 1659.5763,538.5527 1679.2263,552.8327" fill="none" id="MenuRenderer-to-ElectronRenderer" style="stroke:#454645;stroke-width:1;"/><polygon fill="#454645" points="1684.08,556.36,1679.151,547.8333,1680.0353,553.4206,1674.4479,554.3049,1684.08,556.36" style="stroke:#454645;stroke-width:1;"/></g><!--link LiveViewRenderer to ElectronRenderer--><g class="link" data-entity-1="ent0026" data-entity-2="ent0027" data-link-type="dependency" data-source-line="142" id="lnk93"><path codeLine="142" d="M1708.52,480.04 C1711.25,502.45 1714.3638,527.9641 1717.0938,550.3541" fill="none" id="LiveViewRenderer-to-ElectronRenderer" style="stroke:#454645;stroke-width:1;"/><polygon fill="#454645" points="1717.82,556.31,1720.7013,546.892,1717.2148,551.3468,1712.7601,547.8603,1717.82,556.31" style="stroke:#454645;stroke-width:1;"/></g><?plantuml-src hLRRJXin47ttLxZgGoMa02Mje1L2QZO9hGGf2gLLdogpwoIhx7eZnziKbVvxxRrXZyTBKU45nNFcuZFZC_j2hNZEwS_qLZAX2DckKx5XakKqpjXsItyJglzUqQZ8yqBeVvBJ0Htp1IipHHSiosvPlAPrbBZ82bavZFJXKXQbI29pHY_IvKgTItPNMPkOvwBGJbSPKuj2vZhiTR5Gz5noBkYNL5U3H3ezhRpEpkZBoT7qSFok1XKouH82XYTlZu-6TiP9ncCbzJrWqb5MyeFeZlKbRfrDwF5uCfeU-xbjpElfcydnYPr-pbciw8ofzAT_x-yyouhTmMVTXoNlAMC-Cy6dq-bH5Fa5rDQJuJ0wZCWVkvyw89SB5lEcfyz3x7Eoz9zNPRTR9Gt1zUJEIo6uXAUNN9HpBdGK4wUQQKF7pPOdL1KqaMn7SvOAcciWJHNFjpes2F9Xix7Za0TgBtHdlwPyTya4MsfBZMzFRpO9KtvDNHnmthgvzLhPhefDkRakRqqndtIfbWavYbOyNlC40pCLhxfpo9Xjx4e5gJuoaMHSqcv8cfjNl-fEU3PplUjO2ygeL4htuM70J4SQSM22PoR1VWtIlG3Ear-AYsqQyE-idMDTKNCDhwPfLkZNAPPLw6-fI8eTVYT8FOwwICMw7m6QWeES5bWGuiyqjLzNOsyFm71YK3XoVU7-1OFGr5EUGvQ50nFPMW1tpNFkoU2J7OH2oYrWWvpFkhasIjIT-YoZPeiznnuwHvW4SHtsAXlKcLc8CIUIpv9ZXinKHj9oSJyO81fB4Dcje9O-135GRS5lFoUEQFj57Bswtz-7GkG0zjmYtzCVl9CKA606w-kITjaO5Mk28y8r69p15Q6TocPP80uc4Q9KsaatMyDRMtsy9I2uax0PK-sRDpiBQyHUGt6r809sk5z2OPnb4m1vcurupyhftCHfYeVpNYKE2mYbdcuuIUsakGQeZC3ih9w76s4px-j4B_n9O6HowfxN3_e-qCh6gcdoLXkmks84Z9ZQ4-9fJfS7bk8ZlPb2WtaJXQ9wLmlk4b1LGdp5xYxb5ODZVTKF04FhLlSL-tgpnX6ynZ0wTCqUbtuo2LWa7Jaz9RMqF0f1rxX-nw4DYDxmCJW8_iXdIGyZJt45IUqFR2FhhiPWdxC-glkICIPRtFoF5O1mjgonUGg8He2elm00?></g></svg>